<svg width="14" height="12" viewBox="0 0 14 12" fill="none" xmlns="http://www.w3.org/2000/svg">
<path d="M13.6875 6.71875L8.6875 11.7188C8.5 11.9062 8.25 12 8 12C7.71875 12 7.46875 11.9062 7.28125 11.7188C6.875 11.3438 6.875 10.6875 7.28125 10.3125L10.5625 7H1C0.4375 7 0 6.5625 0 6C0 5.46875 0.4375 5 1 5H10.5625L7.28125 1.71875C6.875 1.34375 6.875 0.6875 7.28125 0.3125C7.65625 -0.09375 8.3125 -0.09375 8.6875 0.3125L13.6875 5.3125C14.0938 5.6875 14.0938 6.34375 13.6875 6.71875Z" fill="#FFFFFF"/>
</svg>
