<svg id="Layer_1" width="24" height="24" xmlns="http://www.w3.org/2000/svg" viewBox="0 0 24 24"><defs><style>.cls-1{fill:#453992;}.cls-1,.cls-2,.cls-3{stroke-width:0px;}.cls-2{fill:#9f6eff;}.cls-3{fill:#6a3ec8;}</style></defs><path class="cls-2" d="m11.44,6.8c1.86.43,3.36,1.58,4.28,3.08.01.02.03.04.04.06,0,0,0-.01,0-.02,0,0,0-.01,0-.02,0,0,0,0,0,0-1.2-1.98-3.16-3.49-5.59-4.05-2.16-.5-4.31-.33-6.25.37-.96,1.34-1.6,2.93-1.79,4.66,1.82-3.18,5.56-4.94,9.32-4.08h0Z"/><path class="cls-3" d="m7.93,21.07c-2.71-1.85-4.15-5.23-3.37-8.62.81-3.53,4.33-5.73,7.86-4.91,1.42.33,2.57,1.2,3.28,2.35.01.02.03.05.04.07,0,0,.01,0,.02-.02-.01-.02-.03-.04-.04-.06-.92-1.5-2.42-2.65-4.28-3.08-3.75-.87-7.5.89-9.32,4.08-.04.37-.06.74-.06,1.12,0,4.04,2.41,7.51,5.87,9.07h0Z"/><path class="cls-1" d="m12,0C5.37,0,0,5.37,0,12s5.37,12,12,12,12-5.37,12-12S18.63,0,12,0ZM2.06,12C2.06,6.51,6.51,2.06,12,2.06s9.94,4.45,9.94,9.94c0,.77-.09,1.51-.25,2.23-.89,3.37-3.96,5.85-7.62,5.85s-6.3-2.82-6.3-6.3c0-2.79,2.26-5.04,5.04-5.04,1.13,0,2.15.46,2.88,1.21,0,0,0,0,.01.01,0,0,.01,0,.02,0,0,0,.01,0,.02,0-.01-.02-.03-.05-.04-.07-.71-1.15-1.86-2.02-3.28-2.35-3.53-.81-7.05,1.38-7.86,4.91-.78,3.39.66,6.77,3.37,8.62-3.46-1.56-5.87-5.03-5.87-9.07h0Z"/></svg>
