<svg width="24" height="25" viewBox="0 0 24 25" fill="none" xmlns="http://www.w3.org/2000/svg">
<path d="M18.9728 2.31265C18.8794 2.30756 18.7844 2.33302 18.7029 2.38902C18.6757 2.406 16.0687 4.13041 8.95554 4.13041C8.79091 4.13041 8.64155 4.22376 8.56687 4.37142L2.08165 17.3419C1.96285 17.5082 1.97473 17.7339 2.11051 17.885C2.1173 17.8935 2.12409 17.9003 2.12918 17.9053C2.13766 17.9138 2.14445 17.9206 2.15294 17.9274C2.15294 17.9291 2.15294 17.9291 2.15294 17.9291C2.16143 17.9359 2.16821 17.941 2.1767 17.9461C2.29721 18.0496 7.42632 22.3793 15.9075 22.3793C16.0738 22.3793 16.2249 22.2843 16.2979 22.1349L21.9531 10.5783C22.0193 10.4459 22.0159 10.2881 21.9396 10.1608C21.8649 10.0335 21.7308 9.9537 21.5831 9.94691C21.4083 9.94012 21.2471 10.0369 21.1724 10.1947L15.6444 21.495C12.9051 21.4628 10.5527 20.9689 8.62458 20.3307C10.1674 20.548 11.9342 20.5819 13.8912 20.2408C14.0286 20.217 14.1458 20.1288 14.2086 20.0032L21.1673 5.78014C21.2386 5.64097 21.2284 5.47464 21.1435 5.34395C21.0587 5.21326 20.9093 5.14028 20.7549 5.14876C20.5953 5.15895 20.4545 5.25399 20.3883 5.39656L13.5313 19.4057C10.1979 19.9421 7.46026 19.3752 5.56952 18.6912C6.21447 18.7709 6.91205 18.8253 7.63338 18.8253C9.06077 18.8253 10.5679 18.6182 11.868 17.9919C11.9563 17.9478 12.0293 17.8782 12.0717 17.7899L19.3394 2.93554C19.4259 2.75903 19.3818 2.54687 19.2324 2.41788C19.1578 2.35338 19.0661 2.31774 18.9728 2.31265Z" fill="#6A3EC8"/>
</svg>
