<svg width="24" height="25" viewBox="0 0 24 25" fill="none" xmlns="http://www.w3.org/2000/svg">
<path d="M6.4001 3.5459C5.52565 3.5459 4.8001 4.27145 4.8001 5.1459V9.1459C3.9161 9.1459 3.2001 9.8619 3.2001 10.7459H2.4001C1.9585 10.7459 1.6001 11.1043 1.6001 11.5459V13.1459C1.6001 13.5875 1.9585 13.9459 2.4001 13.9459H3.2001V19.5459C3.2001 20.4299 3.9161 21.1459 4.8001 21.1459H19.2001C20.0841 21.1459 20.8001 20.4299 20.8001 19.5459V13.9459H21.6001C22.0417 13.9459 22.4001 13.5875 22.4001 13.1459V11.5459C22.4001 11.1043 22.0417 10.7459 21.6001 10.7459H20.8001C20.8001 9.8619 20.0841 9.1459 19.2001 9.1459V5.1459C19.2001 4.27145 18.4745 3.5459 17.6001 3.5459H6.4001ZM6.4001 5.1459H17.6001V9.1459H14.4001C13.9585 9.1459 13.6001 9.5043 13.6001 9.9459C13.6001 10.3875 13.9585 10.7459 14.4001 10.7459H15.2001C15.6417 10.7459 16.0001 11.1043 16.0001 11.5459C16.0001 11.9875 15.6417 12.3459 15.2001 12.3459H8.8001C8.3585 12.3459 8.0001 11.9875 8.0001 11.5459C8.0001 11.1043 8.3585 10.7459 8.8001 10.7459H9.6001C10.0417 10.7459 10.4001 10.3875 10.4001 9.9459C10.4001 9.5043 10.0417 9.1459 9.6001 9.1459H6.4001V5.1459ZM7.2001 13.9459C7.6417 13.9459 8.0001 14.3043 8.0001 14.7459C8.0001 15.1875 7.6417 15.5459 7.2001 15.5459C6.7585 15.5459 6.4001 15.1875 6.4001 14.7459C6.4001 14.3043 6.7585 13.9459 7.2001 13.9459ZM10.4001 13.9459C10.8417 13.9459 11.2001 14.3043 11.2001 14.7459C11.2001 15.1875 10.8417 15.5459 10.4001 15.5459C9.9585 15.5459 9.6001 15.1875 9.6001 14.7459C9.6001 14.3043 9.9585 13.9459 10.4001 13.9459ZM13.6001 13.9459C14.0417 13.9459 14.4001 14.3043 14.4001 14.7459C14.4001 15.1875 14.0417 15.5459 13.6001 15.5459C13.1585 15.5459 12.8001 15.1875 12.8001 14.7459C12.8001 14.3043 13.1585 13.9459 13.6001 13.9459ZM16.8001 13.9459C17.2417 13.9459 17.6001 14.3043 17.6001 14.7459C17.6001 15.1875 17.2417 15.5459 16.8001 15.5459C16.3585 15.5459 16.0001 15.1875 16.0001 14.7459C16.0001 14.3043 16.3585 13.9459 16.8001 13.9459ZM8.8001 17.1459C9.2417 17.1459 9.6001 17.5043 9.6001 17.9459C9.6001 18.3875 9.2417 18.7459 8.8001 18.7459C8.3585 18.7459 8.0001 18.3875 8.0001 17.9459C8.0001 17.5043 8.3585 17.1459 8.8001 17.1459ZM12.0001 17.1459C12.4417 17.1459 12.8001 17.5043 12.8001 17.9459C12.8001 18.3875 12.4417 18.7459 12.0001 18.7459C11.5585 18.7459 11.2001 18.3875 11.2001 17.9459C11.2001 17.5043 11.5585 17.1459 12.0001 17.1459ZM15.2001 17.1459C15.6417 17.1459 16.0001 17.5043 16.0001 17.9459C16.0001 18.3875 15.6417 18.7459 15.2001 18.7459C14.7585 18.7459 14.4001 18.3875 14.4001 17.9459C14.4001 17.5043 14.7585 17.1459 15.2001 17.1459Z" fill="#6A3EC8"/>
</svg>
