<svg width="24" height="25" viewBox="0 0 24 25" fill="none" xmlns="http://www.w3.org/2000/svg">
<path d="M19.7143 3.3457H4.28571C3.57686 3.3457 3 3.92256 3 4.63142V20.06C3 20.7688 3.57686 21.3457 4.28571 21.3457H19.7143C20.4231 21.3457 21 20.7688 21 20.06V4.63142C21 3.92256 20.4231 3.3457 19.7143 3.3457ZM9.21257 13.688C9.41786 13.8054 9.48943 14.0673 9.372 14.2726C9.29314 14.411 9.14871 14.4886 8.99957 14.4886C8.92757 14.4886 8.85429 14.4706 8.78743 14.432L5.78743 12.7177C5.65371 12.6414 5.57143 12.4991 5.57143 12.3457C5.57143 12.1923 5.65371 12.05 5.78743 11.9737L8.78743 10.2594C8.99271 10.1411 9.25457 10.2131 9.372 10.4188C9.48943 10.6241 9.41786 10.886 9.21257 11.0034L6.864 12.3457L9.21257 13.688ZM14.1124 8.21899L10.6839 16.7904C10.6166 16.9584 10.4554 17.06 10.2857 17.06C10.2326 17.06 10.1786 17.0506 10.1267 17.0296C9.90686 16.9417 9.79971 16.6923 9.88757 16.4724L13.3161 7.90099C13.404 7.68027 13.6547 7.57356 13.8733 7.66185C14.0931 7.7497 14.2003 7.99913 14.1124 8.21899ZM18.2126 12.7177L15.2126 14.432C15.1457 14.4706 15.0724 14.4886 15.0004 14.4886C14.8513 14.4886 14.7069 14.411 14.628 14.2726C14.5106 14.0673 14.5821 13.8054 14.7874 13.688L17.136 12.3457L14.7874 11.0034C14.5821 10.886 14.5106 10.6241 14.628 10.4188C14.745 10.2131 15.0073 10.1411 15.2126 10.2594L18.2126 11.9737C18.3463 12.05 18.4286 12.1923 18.4286 12.3457C18.4286 12.4991 18.3463 12.6414 18.2126 12.7177Z" fill="#6A3EC8"/>
</svg>
