<svg width="24" height="25" viewBox="0 0 24 25" fill="none" xmlns="http://www.w3.org/2000/svg">
<path d="M3.6 4.36572C3.36774 4.36572 3.18 4.55346 3.18 4.78572V18.2257C3.18 18.458 3.36774 18.6457 3.6 18.6457C7.66686 18.6457 12 20.3257 12 20.3257C12 20.3257 16.3331 18.6457 20.4 18.6457C20.6323 18.6457 20.82 18.458 20.82 18.2257V4.78572C20.82 4.55346 20.6323 4.36572 20.4 4.36572C16.5557 4.36572 12.7909 5.71507 12 6.01537C11.2091 5.71507 7.44426 4.36572 3.6 4.36572ZM1.92 6.04572C1.68774 6.04572 1.5 6.23346 1.5 6.46572V19.9057C1.5 20.138 1.68774 20.3257 1.92 20.3257H9.20684C7.65452 19.9108 5.58282 19.4857 3.6 19.4857H2.34V6.04572H1.92ZM21.66 6.04572V19.4857H20.4C18.4172 19.4857 16.3455 19.9108 14.7932 20.3257H22.08C22.3123 20.3257 22.5 20.138 22.5 19.9057V6.46572C22.5 6.23346 22.3123 6.04572 22.08 6.04572H21.66ZM12 8.98572C12.2323 8.98572 12.42 9.17346 12.42 9.40572V10.6657C12.42 10.898 12.2323 11.0857 12 11.0857C11.7677 11.0857 11.58 10.898 11.58 10.6657V9.40572C11.58 9.17346 11.7677 8.98572 12 8.98572ZM12 14.8657C12.2323 14.8657 12.42 15.0535 12.42 15.2857V16.5457C12.42 16.778 12.2323 16.9657 12 16.9657C11.7677 16.9657 11.58 16.778 11.58 16.5457V15.2857C11.58 15.0535 11.7677 14.8657 12 14.8657Z" fill="#6A3EC8"/>
</svg>
