<svg width="24" height="25" viewBox="0 0 24 25" fill="none" xmlns="http://www.w3.org/2000/svg">
<path d="M1.44 3.51367C0.624 3.51367 0 4.13767 0 4.95367V19.3537C0 20.1697 0.624 20.7937 1.44 20.7937H10.9444C11.0884 20.9857 11.328 21.082 11.52 21.178V19.8337V17.4337V4.95367C11.52 4.13767 10.896 3.51367 10.08 3.51367H1.44ZM13.92 3.51367C13.104 3.51367 12.48 4.13767 12.48 4.95367V17.4337V19.8337V21.178C12.72 21.082 12.9116 20.9857 13.0556 20.7937H22.56C23.376 20.7937 24 20.1697 24 19.3537V4.95367C24 4.13767 23.376 3.51367 22.56 3.51367H13.92ZM4.94344 9.27367H6.16875L8.33719 15.5137H7.16625L6.65062 13.918H4.40719L3.88312 15.5137H2.77969L4.94344 9.27367ZM16.2619 9.27367H20.7291V10.0349L17.5341 14.4759V14.549H20.8097V15.5137H20.8088H16.1728V14.7524L19.3809 10.3115V10.2384H16.2619V9.27367ZM5.49656 10.4634L4.66031 13.0359H6.3975L5.56875 10.4634H5.49656Z" fill="#6A3EC8"/>
</svg>
