<?xml version="1.0" encoding="UTF-8"?> <svg xmlns="http://www.w3.org/2000/svg" width="30" height="31" viewBox="0 0 30 31" fill="none"><g clip-path="url(#clip0_11809_3079)"><g clip-path="url(#clip1_11809_3079)"><path d="M12.0002 1.49121C17.5378 1.49131 22.0769 5.70052 22.6292 11.0908H28.7004V13.291H22.6301C22.4183 15.3562 21.6184 17.2449 20.4045 18.792L28.2551 26.6426L27.9016 26.9961L26.2053 28.6934L25.8518 29.0469L17.9036 21.0986C16.2133 22.2253 14.1876 22.8916 12.0002 22.8916C6.09077 22.8916 1.30015 18.1009 1.30005 12.1914C1.30005 6.28186 6.0907 1.49121 12.0002 1.49121ZM5.50513 11.9443L5.35864 12.0908H3.50317C3.50223 12.1242 3.50024 12.1577 3.50024 12.1914C3.50025 12.2248 3.50224 12.2579 3.50317 12.291H5.44165L9.00024 8.73242L16.1995 15.9316L19.6946 12.4375L19.8411 12.291H21.6965C21.6975 12.2582 21.7004 12.2252 21.7004 12.1914C21.7004 12.1573 21.6976 12.1239 21.6965 12.0908H19.759L16.2004 15.6494L15.8469 15.2959L8.99927 8.44922L5.50513 11.9443Z" stroke="#00CFC7"></path></g></g><defs><clipPath id="clip0_11809_3079"><rect width="30" height="30" fill="white" transform="translate(0 0.191406)"></rect></clipPath><clipPath id="clip1_11809_3079"><rect width="30" height="30" fill="white" transform="translate(0 0.191406)"></rect></clipPath></defs></svg> 