<?xml version="1.0" encoding="UTF-8"?> <svg xmlns="http://www.w3.org/2000/svg" width="30" height="31" viewBox="0 0 30 31" fill="none"><g clip-path="url(#clip0_11809_3074)"><path d="M18 22.1914V24.4414H16.75V24.6914H18V26.4414C18 27.406 17.2146 28.1914 16.25 28.1914H13.75C12.7854 28.1914 12 27.406 12 26.4414V24.6914H13.25V24.4414H12V22.1914H18ZM20.5586 9.69141L20.5098 10.123C20.896 9.85113 21.3669 9.69141 21.875 9.69141C23.1863 9.69141 24.25 10.7551 24.25 12.0664C24.25 12.468 24.1563 12.8525 23.9736 13.1953L25.1104 17.5303C26.0881 18.0205 26.75 19.0187 26.75 20.1914V20.6914H20.75V20.1914C20.75 19.3838 21.0777 18.6526 21.5908 18.1162L20.541 14.0244C20.386 13.9192 20.2433 13.7972 20.1172 13.6592L19.2471 21.4971L19.1973 21.9414H10.8027L10.7529 21.4971L9.88184 13.6611C9.7556 13.7989 9.61312 13.9213 9.45703 14.0264L8.4082 18.1162C8.92157 18.6526 9.25 19.3836 9.25 20.1914V20.6914H3.25V20.1914C3.25 19.019 3.9114 18.0206 4.88867 17.5303L6.02539 13.1963C5.84208 12.8534 5.75 12.4652 5.75 12.0664C5.75 10.7551 6.8137 9.69141 8.125 9.69141C8.6328 9.69141 9.10311 9.85141 9.48926 10.123L9.44141 9.69141H20.5586ZM19.25 2.19141V8.19141H16.75V9.44141H13.25V8.19141H10.75V2.19141H19.25ZM13.125 5.69141C13.0545 5.69141 13 5.74587 13 5.81641C13 5.88694 13.0545 5.94141 13.125 5.94141C13.1955 5.94141 13.25 5.88694 13.25 5.81641C13.25 5.74587 13.1955 5.69141 13.125 5.69141ZM16.875 5.69141C16.8045 5.69141 16.75 5.74587 16.75 5.81641C16.75 5.88694 16.8045 5.94141 16.875 5.94141C16.9455 5.94141 17 5.88694 17 5.81641C17 5.74587 16.9455 5.69141 16.875 5.69141Z" stroke="#00CFC7"></path></g><defs><clipPath id="clip0_11809_3074"><rect width="30" height="30" fill="white" transform="translate(0 0.191406)"></rect></clipPath></defs></svg> 