<?xml version="1.0" encoding="UTF-8"?> <svg xmlns="http://www.w3.org/2000/svg" width="30" height="31" viewBox="0 0 30 31" fill="none"><g clip-path="url(#clip0_11809_3042)"><g clip-path="url(#clip1_11809_3042)"><path d="M22.8713 22.1963C22.9856 22.5279 23.1534 22.8332 23.3655 23.1025L23.7239 23.5586L23.22 23.8467L17.8831 26.8955C17.7307 28.3526 16.4972 29.4911 15.0002 29.4912C13.4006 29.4912 12.1 28.1914 12.0999 26.5918C12.0999 24.9921 13.4005 23.6914 15.0002 23.6914C15.8982 23.6915 16.6902 24.106 17.218 24.7422L22.1497 21.9248L22.6741 21.625L22.8713 22.1963ZM4.20044 18.292C5.79994 18.2922 7.09975 19.5919 7.09985 21.1914C7.09985 21.2925 7.09226 21.3906 7.0813 21.4854L12.1282 24.3691L12.5647 24.6182L12.3137 25.0527C12.141 25.3523 12.0177 25.6841 11.9543 26.0361L11.8284 26.7324L11.2141 26.3809L6.03638 23.4209C5.53835 23.834 4.90268 24.0917 4.20044 24.0918C2.6007 24.0918 1.30005 22.7911 1.30005 21.1914C1.30015 19.5918 2.60076 18.292 4.20044 18.292ZM26.8997 18.5195C27.9508 18.952 28.7004 19.9789 28.7004 21.1914C28.7004 22.7911 27.3998 24.0918 25.8 24.0918C24.2003 24.0918 22.8997 22.7911 22.8997 21.1914C22.8997 19.9789 23.6493 18.952 24.7004 18.5195V12.1465L25.2834 12.2451C25.4582 12.2746 25.6295 12.292 25.8 12.292C25.9706 12.292 26.1419 12.2746 26.3167 12.2451L26.8997 12.1465V18.5195ZM15.8176 8.69141L15.9182 9.05957L15.9875 9.31348C16.4163 9.36157 16.7913 9.49033 17.1077 9.69531C17.5163 9.96014 17.7973 10.3313 17.9729 10.7441C18.2774 11.4604 18.2706 12.3131 18.0852 13.0713C18.1119 13.1157 18.1336 13.1603 18.1506 13.2021C18.2274 13.3907 18.2511 13.611 18.2249 13.8418C18.1701 14.3259 17.9979 14.7062 17.7249 14.9072C17.6231 15.2855 17.379 15.6131 17.1809 15.834C17.0223 16.0109 16.8477 16.1672 16.7004 16.2852V17.083C16.7604 17.1896 16.8926 17.3144 17.1731 17.458C17.5078 17.6293 17.8871 17.7558 18.3528 17.9482C18.7834 18.1261 19.2651 18.3537 19.6389 18.7021C20.0332 19.0699 20.3 19.566 20.3 20.2275C20.3 20.4072 20.2517 20.6091 20.1252 20.7793C19.9892 20.9623 19.7718 21.0917 19.5051 21.0918H10.4954C10.2286 21.0918 10.0113 20.9622 9.87524 20.7793C9.74879 20.6091 9.70051 20.4072 9.70044 20.2275C9.70044 19.5661 9.96644 19.0708 10.3606 18.7031C10.7344 18.3545 11.2161 18.1262 11.6467 17.9482C12.1127 17.7558 12.4926 17.6295 12.8274 17.458C13.1087 17.3139 13.2404 17.1889 13.3 17.082V16.29C13.1537 16.1763 12.9785 16.0245 12.8167 15.8477C12.6101 15.6221 12.3605 15.2891 12.26 14.8975C11.9884 14.6961 11.8175 14.3154 11.7629 13.832C11.7286 13.5286 11.797 13.2749 11.9104 13.084C11.6375 11.9881 11.6799 10.9195 12.22 10.0889C12.8159 9.17242 13.9188 8.69145 15.4358 8.69141H15.8176ZM4.20044 6.29199C5.79994 6.2922 7.09975 7.59188 7.09985 9.19141C7.09985 10.4036 6.35084 11.4296 5.30005 11.8623V18.2373L4.71704 18.1387C4.54229 18.1092 4.37093 18.0918 4.20044 18.0918C4.02982 18.0918 3.85775 18.1092 3.68286 18.1387L3.09985 18.2373V11.8613C2.04934 11.4285 1.30005 10.4034 1.30005 9.19141C1.30015 7.59175 2.60076 6.29199 4.20044 6.29199ZM18.7874 4.00293L23.9641 6.96094C24.4617 6.54822 25.0977 6.29199 25.8 6.29199C27.3997 6.29199 28.7003 7.59175 28.7004 9.19141C28.7004 10.7911 27.3998 12.0918 25.8 12.0918C24.2003 12.0918 22.8997 10.7911 22.8997 9.19141C22.8997 9.08988 22.9072 8.99157 22.9182 8.89648L17.8713 6.01367L17.4358 5.76465L17.6868 5.33008C17.8598 5.02996 17.9832 4.69898 18.0471 4.34766L18.1741 3.65234L18.7874 4.00293ZM15.0002 0.891602C16.5999 0.891707 17.8997 2.19231 17.8997 3.79199C17.8994 5.39149 16.5998 6.6913 15.0002 6.69141C14.1017 6.69141 13.3094 6.27647 12.7815 5.63965L7.84985 8.45898L7.32544 8.75879L7.12915 8.18652C7.0158 7.85633 6.84755 7.55084 6.63501 7.28027L6.27661 6.82422L6.77954 6.53711L12.1155 3.48633C12.2684 2.0297 13.5036 0.891602 15.0002 0.891602Z" stroke="#00CFC7"></path></g></g><defs><clipPath id="clip0_11809_3042"><rect width="30" height="30" fill="white" transform="translate(0 0.19165)"></rect></clipPath><clipPath id="clip1_11809_3042"><rect width="30" height="30" fill="white" transform="translate(0 0.19165)"></rect></clipPath></defs></svg> 