<?xml version="1.0" encoding="UTF-8"?> <svg xmlns="http://www.w3.org/2000/svg" width="30" height="31" viewBox="0 0 30 31" fill="none"><g clip-path="url(#clip0_11809_3069)"><g clip-path="url(#clip1_11809_3069)"><path d="M25.9004 6.0918V18.0605C25.8946 18.0842 25.8868 18.1131 25.8838 18.1465L25.8662 18.3389L25.9824 18.4932C26.6805 19.4176 27.0995 20.5525 27.0996 21.791C27.0996 23.1083 26.6385 24.3146 25.8633 25.2617L25.5762 25.6123L29.1201 29.1562L28.9727 29.2988L25.7607 26.0703L25.6143 25.9229H25.209L25.0703 26.0361C24.1179 26.8183 22.9178 27.291 21.5996 27.291C19.5713 27.2909 17.7917 26.1841 16.8389 24.541L16.6943 24.291H0.599609C0.544193 24.2908 0.5 24.2467 0.5 24.1914V6.0918H25.9004ZM21.5996 16.4912C18.6777 16.4914 16.3 18.8691 16.2998 21.791C16.2998 24.7131 18.6776 27.0916 21.5996 27.0918C24.5218 27.0918 26.9004 24.7133 26.9004 21.791C26.9002 18.869 24.5217 16.4912 21.5996 16.4912ZM3.7002 19.8916H7.09961V17.6914H3.7002V19.8916ZM7.90039 19.8916H14.9004V17.6914H7.90039V19.8916ZM3.7002 16.8916H7.09961V14.6914H3.7002V16.8916ZM7.90039 16.8916H17.2998V14.6914H7.90039V16.8916ZM3.7002 13.8916H7.09961V11.6914H3.7002V13.8916ZM7.90039 13.8916H22.7002V11.6914H7.90039V13.8916ZM3.7002 10.8916H7.09961V8.69141H3.7002V10.8916ZM7.90039 10.8916H22.7002V8.69141H7.90039V10.8916ZM1.6875 0.691406H24.7129C25.3624 0.691623 25.9004 1.2294 25.9004 1.87891V3.8916H0.5V1.87891C0.5 1.26976 0.972861 0.758591 1.56738 0.697266L1.6875 0.691406Z" stroke="#00CFC7"></path></g></g><defs><clipPath id="clip0_11809_3069"><rect width="30" height="30" fill="white" transform="translate(0 0.191406)"></rect></clipPath><clipPath id="clip1_11809_3069"><rect width="30" height="30" fill="white" transform="translate(0 0.191406)"></rect></clipPath></defs></svg> 