<?xml version="1.0" encoding="UTF-8"?> <svg xmlns="http://www.w3.org/2000/svg" width="30" height="31" viewBox="0 0 30 31" fill="none"><path d="M15.1963 22.4434C14.878 22.5302 14.5969 22.6087 14.3594 22.6875C14.2368 22.7281 14.1354 22.7656 14.0537 22.8008C14.0794 22.8112 14.1069 22.8206 14.1357 22.8311C14.6321 22.7045 15.0736 22.5838 15.5186 22.3613L15.5459 22.3467C15.4262 22.3798 15.3092 22.4125 15.1963 22.4434ZM13.3672 15.5234C13.2659 15.5713 13.1845 15.6184 13.1221 15.665C12.9939 15.7609 13 15.8083 13 15.8164C13 15.9694 13.0528 16.0631 13.1904 16.1592C13.2432 16.196 13.3075 16.2286 13.3809 16.2617C13.3741 16.0858 13.3672 15.8999 13.3672 15.6992V15.5234ZM16.75 11.7637C16.8142 11.7397 16.8699 11.717 16.916 11.6924C16.943 11.678 16.9617 11.6634 16.9766 11.6533C16.9584 11.6349 16.9288 11.6085 16.8809 11.5771C16.8428 11.5523 16.7997 11.5261 16.75 11.501V11.7637ZM13.3223 6.52734C12.8145 6.58903 12.3702 6.68488 12.0664 6.81934C11.918 6.88502 11.8314 6.9469 11.7871 6.99414C11.8712 7.04778 12.0053 7.11415 12.2012 7.18652C12.5117 7.30127 12.9111 7.41089 13.3672 7.52441V6.52246C13.3522 6.52421 13.3372 6.52553 13.3223 6.52734ZM16.75 8.41309C17.6151 8.68228 18.4665 9.01363 19.1338 9.45703C19.9001 9.96632 20.5 10.68 20.5 11.6758C20.5 12.7077 19.8612 13.3845 19.0742 13.8301C18.379 14.2237 17.4982 14.478 16.6465 14.6807L16.6318 14.9814C16.5963 15.7042 16.5646 16.2952 16.5371 16.8818C17.1136 16.9888 17.6966 17.1476 18.1709 17.4316C18.4777 17.6154 18.7525 17.8586 18.9492 18.1836C19.1474 18.5112 19.25 18.895 19.25 19.332C19.25 20.1936 18.795 20.8117 18.2031 21.2461C17.6581 21.6459 16.9649 21.9144 16.3125 22.1211L16.2402 22.8574C16.2237 23.0248 16.2122 23.1639 16.2012 23.3057C16.2003 23.3164 16.1991 23.3272 16.1982 23.3379C16.5566 23.4487 16.9118 23.59 17.208 23.7793C17.6264 24.0467 18 24.4624 18 25.0742C18 25.7853 17.5786 26.2531 17.0674 26.5352C16.6781 26.7499 16.2054 26.8763 15.7393 26.958C15.7134 27.0894 15.6868 27.2165 15.6572 27.334C15.6042 27.5446 15.535 27.7681 15.4316 27.9443L15.0078 28.666L14.5732 27.9512C14.4421 27.7358 14.3417 27.4283 14.2588 27.1113C13.8925 27.1184 13.5564 27.11 13.291 27.0977C13.109 27.0892 12.9588 27.0785 12.8535 27.0703C12.801 27.0662 12.7592 27.0632 12.7305 27.0605C12.7161 27.0592 12.7041 27.0584 12.6963 27.0576C12.6926 27.0573 12.6896 27.0569 12.6875 27.0566C12.6864 27.0565 12.6852 27.0557 12.6846 27.0557H12.6836L12.6797 26.0615H12.6816C12.683 26.0614 12.6855 26.0609 12.6885 26.0605C12.6947 26.0598 12.7042 26.0591 12.7168 26.0576C12.7423 26.0546 12.7803 26.0494 12.8291 26.043C12.9268 26.03 13.0669 26.0098 13.2344 25.9824C13.4561 25.9461 13.7224 25.8959 14 25.833C13.9527 25.5303 13.9107 25.2037 13.874 24.8535C13.2612 24.7084 12.5954 24.5342 12.0527 24.2871C11.4361 24.0063 10.75 23.527 10.75 22.6914C10.75 21.9322 11.3144 21.4293 11.877 21.0977C12.3572 20.8145 12.9548 20.5856 13.541 20.3857C13.5129 19.8956 13.487 19.3897 13.4648 18.9053C12.6426 18.7805 11.759 18.6 11.043 18.2324C10.6163 18.0134 10.2264 17.718 9.94336 17.3115C9.65662 16.8996 9.5 16.4021 9.5 15.8164C9.5 14.6012 10.1239 13.7909 10.9824 13.2637C11.6939 12.8268 12.5807 12.5729 13.4375 12.3975C13.4244 11.7552 13.4161 11.1365 13.4102 10.5938C12.3172 10.3565 11.1424 10.0716 10.2061 9.62402C9.15941 9.12368 8.25 8.34081 8.25 7.06641C8.25 5.86563 9.16996 5.09462 10.127 4.61133C10.9404 4.20054 11.9063 3.93298 12.7373 3.75C12.6962 3.50582 12.6613 3.25303 12.6289 2.98535L12.625 2.95605V2.92578C12.625 2.63978 12.8269 2.47907 12.8975 2.42871C12.9919 2.36134 13.0972 2.31727 13.1826 2.28809C13.3563 2.22879 13.5669 2.19141 13.75 2.19141H13.7969L13.8418 2.2002L15 2.41797L16.1582 2.2002L16.2031 2.19141H16.25C16.446 2.19141 16.697 2.24228 16.9004 2.36328C17.003 2.42442 17.1412 2.53189 17.2217 2.70703C17.2932 2.86276 17.2979 3.02784 17.2529 3.18066C17.2525 3.19048 17.2525 3.20024 17.252 3.20996C18.0659 3.22682 18.8116 3.3861 19.3799 3.65723C19.946 3.92734 20.5 4.39629 20.5 5.07422C20.5 5.72613 20.0446 6.14644 19.5449 6.37695C19.0453 6.60732 18.3995 6.70703 17.7344 6.70703C17.3633 6.70703 17.0336 6.6815 16.75 6.64844V8.41309Z" stroke="#00CFC7"></path></svg> 