<?xml version="1.0" encoding="UTF-8"?> <svg xmlns="http://www.w3.org/2000/svg" width="30" height="31" viewBox="0 0 30 31" fill="none"><g clip-path="url(#clip0_11809_3047)"><path d="M10.8779 22.7021C10.8713 22.7039 10.8656 22.7057 10.8613 22.707C10.8579 22.7081 10.8553 22.7094 10.8535 22.71L10.8779 22.7021ZM10.8779 22.7021C10.8829 22.7008 10.8885 22.6996 10.8945 22.6982H10.8926L10.8779 22.7021ZM23.2217 11.6846L23.2607 11.6904C23.6261 11.7489 23.9422 11.946 24.1641 12.2188L27.0752 15.1201L27.082 15.127C27.49 15.5495 27.6321 16.1847 27.3965 16.7471L27.3975 16.748C27.1693 17.326 26.6094 17.6846 26.0117 17.6846H24.5117V18.96C26.252 19.5793 27.5068 21.2288 27.5059 23.1885C27.5059 25.6756 25.4901 27.6914 23.0029 27.6914C20.5168 27.6914 18.5 25.6746 18.5 23.1885C18.5 21.2231 19.7624 19.569 21.5117 18.9541V17.6846H20.0117C19.4189 17.6845 18.8643 17.3315 18.6328 16.7617V16.7627C18.3882 16.1966 18.5307 15.5533 18.9424 15.127L18.9492 15.1201L21.8604 12.2178C22.0873 11.9402 22.4149 11.7478 22.7734 11.6904L22.8125 11.6846H23.2217ZM11.1592 25.6641C11.1582 25.6643 11.1573 25.6647 11.1562 25.665C11.1576 25.6646 11.159 25.6644 11.1602 25.6641C11.1638 25.6629 11.1671 25.6617 11.1689 25.6611L11.1592 25.6641ZM23.0029 1.68555C23.5943 1.68555 24.1802 1.80202 24.7266 2.02832C25.2728 2.25461 25.7694 2.58681 26.1875 3.00488C26.6055 3.42294 26.9369 3.91967 27.1631 4.46582C27.3893 5.01202 27.5058 5.59729 27.5059 6.18848C27.5059 6.77982 27.3894 7.36578 27.1631 7.91211C26.9368 8.45831 26.6056 8.95499 26.1875 9.37305C25.7694 9.7911 25.2728 10.1223 24.7266 10.3486C24.1802 10.5749 23.5943 10.6914 23.0029 10.6914C22.4116 10.6914 21.8256 10.5749 21.2793 10.3486C20.7333 10.1224 20.2373 9.79088 19.8193 9.37305C19.4013 8.95497 19.0691 8.45833 18.8428 7.91211C18.6165 7.36578 18.5 6.77982 18.5 6.18848C18.5 5.59731 18.6166 5.01201 18.8428 4.46582C19.0691 3.91949 19.4012 3.42303 19.8193 3.00488C20.2374 2.58685 20.7331 2.25461 21.2793 2.02832C21.8256 1.80203 22.4116 1.68556 23.0029 1.68555ZM17.5107 24.3955L17.5049 24.4346C17.4459 24.803 17.2461 25.1207 16.9697 25.3428L14.0752 28.248L14.0684 28.2549C13.6455 28.6632 13.01 28.8057 12.4473 28.5693V28.5703L12.4326 28.5645V28.5635C11.8636 28.3316 11.5107 27.7779 11.5107 27.1855V25.6855H11.0264C11.0213 25.6857 11.0159 25.6865 11.0107 25.6865L10.9805 25.6855L10.9785 25.6846H10.9678C10.0684 25.6752 8.84028 25.37 7.77246 24.5352C6.7674 23.7493 5.93114 22.514 5.63379 20.6855H5.51172V10.4229C3.76251 9.80723 2.5 8.1532 2.5 6.18848C2.50005 3.70148 4.51677 1.68461 7.00293 1.68457C9.49005 1.68457 11.5058 3.70039 11.5059 6.1875C11.5059 8.14713 10.2511 9.79661 8.51074 10.416V19.1934L8.51855 19.5234C8.59362 21.1193 9.19957 21.8746 9.73926 22.25C10.322 22.6553 10.9227 22.6827 11.002 22.6846H11.5107V21.1846C11.5107 20.5886 11.8672 20.0301 12.4424 19.8008C12.9708 19.5769 13.5649 19.689 13.9863 20.041L14.0684 20.1152L14.0752 20.1221L16.9707 23.0283C17.252 23.2554 17.447 23.5848 17.5049 23.9463L17.5107 23.9854V24.3955Z" stroke="#00CFC7"></path></g><defs><clipPath id="clip0_11809_3047"><rect width="30" height="30" fill="white" transform="translate(0 0.19165)"></rect></clipPath></defs></svg> 