<?xml version="1.0" encoding="UTF-8"?> <svg xmlns="http://www.w3.org/2000/svg" width="30" height="31" viewBox="0 0 30 31" fill="none"><g clip-path="url(#clip0_11809_3058)"><path d="M15 2.69141C17.3345 2.69141 19.708 2.95378 21.4922 3.21484C22.3854 3.34555 23.1342 3.47698 23.6602 3.5752C23.9232 3.62432 24.1312 3.66551 24.2734 3.69434C24.3445 3.70874 24.3993 3.71972 24.4365 3.72754C24.4552 3.73145 24.4698 3.73425 24.4795 3.73633C24.4842 3.73733 24.4877 3.73872 24.4902 3.73926C24.4914 3.73951 24.4925 3.73911 24.4932 3.73926C25.0582 3.85293 25.5669 4.15893 25.9326 4.60449C26.2997 5.05185 26.5002 5.61271 26.5 6.19141V12.1914C26.5 17.5681 23.9051 21.3771 21.335 23.8252C20.0504 25.0488 18.7662 25.9376 17.8037 26.5215C17.3221 26.8136 16.9197 27.0306 16.6357 27.1748C16.4938 27.2469 16.3807 27.3004 16.3027 27.3369C16.264 27.355 16.2341 27.3694 16.2129 27.3789C16.2024 27.3836 16.1935 27.387 16.1875 27.3896C16.1845 27.391 16.1817 27.3927 16.1797 27.3936L16.1738 27.3955C16.1736 27.3956 16.1724 27.3951 16.1709 27.3955C15.8107 27.5875 15.4097 27.6906 15.001 27.6914H15C14.5807 27.6914 14.1684 27.5858 13.8008 27.3848C13.7968 27.383 13.7921 27.3812 13.7871 27.3789C13.766 27.3694 13.736 27.3551 13.6973 27.3369C13.6193 27.3004 13.5063 27.2459 13.3643 27.1738C13.0803 27.0296 12.6778 26.8135 12.1963 26.5215C11.2339 25.9377 9.95056 25.0486 8.66602 23.8252C6.09573 21.3771 3.5 17.5682 3.5 12.1914V6.19043L3.50977 5.97559C3.55352 5.47552 3.74686 4.99805 4.06738 4.60742C4.39877 4.20364 4.84788 3.91651 5.34961 3.78125L5.36133 3.77051L5.50586 3.74023L5.50684 3.73926C5.50753 3.73911 5.50859 3.73951 5.50977 3.73926C5.51229 3.73872 5.51579 3.73733 5.52051 3.73633C5.53023 3.73425 5.54484 3.73145 5.56348 3.72754C5.60072 3.71972 5.65554 3.70874 5.72656 3.69434C5.86876 3.66551 6.0768 3.62432 6.33984 3.5752C6.8658 3.47698 7.61456 3.34555 8.50781 3.21484C10.292 2.95378 12.6655 2.69141 15 2.69141ZM15 8.69141C11.9681 8.69141 9.5 11.1595 9.5 14.1914C9.5 17.2233 11.9681 19.6914 15 19.6914C18.0319 19.6914 20.5 17.2233 20.5 14.1914C20.5 11.1595 18.0319 8.69141 15 8.69141ZM15 9.69141C15.8281 9.69141 16.5 10.3633 16.5 11.1914V13.5703L17.5527 14.623C18.1382 15.2085 18.1381 16.1582 17.5537 16.7441H17.5527C17.2969 17 16.9703 17.1446 16.6357 17.1768L16.4922 17.1836C16.1087 17.1836 15.724 17.0365 15.4316 16.7441L13.5 14.8125V11.1914C13.5 10.3633 14.1719 9.69141 15 9.69141Z" stroke="#00CFC7"></path></g><defs><clipPath id="clip0_11809_3058"><rect width="30" height="30" fill="white" transform="translate(0 0.191406)"></rect></clipPath></defs></svg> 