<?xml version="1.0" encoding="UTF-8"?> <svg xmlns="http://www.w3.org/2000/svg" width="30" height="31" viewBox="0 0 30 31" fill="none"><g clip-path="url(#clip0_11809_3137)"><path d="M23.75 3.44141C25.4049 3.44141 26.75 4.78651 26.75 6.44141V23.9414C26.75 25.5963 25.4049 26.9414 23.75 26.9414H17.1846L17.6221 26.1895C18.0133 25.5172 18.25 24.757 18.25 23.9414V23.4414H23.25L23.2529 9.44141H6.75V14.9248L6.50195 15.0693C5.15755 15.8534 4.25 17.2887 4.25 18.9414H3.25V6.44141C3.25 4.78651 4.59511 3.44141 6.25 3.44141H23.75ZM16.75 23.9414C16.75 24.7371 16.4337 25.4999 15.8711 26.0625C15.3085 26.6251 14.5457 26.9414 13.75 26.9414C12.9543 26.9414 12.1915 26.6251 11.6289 26.0625C11.0663 25.4999 10.75 24.7371 10.75 23.9414V23.9385C10.7508 23.7773 10.7654 23.6167 10.792 23.458L9.2334 21.9004C9.07374 21.9265 8.91211 21.9413 8.75 21.9414H8.74512C8.69521 21.9409 8.64549 21.9366 8.5957 21.9336L5.11719 26.2852L4.80469 26.6758L2.07031 24.4883L2.38281 24.0977L5.86328 19.749C5.78939 19.487 5.75071 19.2156 5.75 18.9424V18.9414C5.75 18.1458 6.0663 17.3829 6.62891 16.8203C7.19152 16.2577 7.95435 15.9414 8.75 15.9414C9.54565 15.9414 10.3085 16.2577 10.8711 16.8203C11.4337 17.3829 11.75 18.1458 11.75 18.9414V18.9443C11.7492 19.1053 11.7336 19.2654 11.707 19.4238L13.2656 20.9814C13.4255 20.9552 13.5876 20.9415 13.75 20.9414H13.7549L13.9033 20.9482L15.8633 18.4961C15.7913 18.2417 15.75 17.9724 15.75 17.6914C15.75 16.034 17.0926 14.6914 18.75 14.6914C20.4074 14.6914 21.75 16.034 21.75 17.6914C21.75 19.3488 20.4074 20.6914 18.75 20.6914C18.6984 20.6914 18.6481 20.6853 18.5996 20.6816L16.6357 23.1328C16.7099 23.3952 16.7493 23.6669 16.75 23.9404V23.9414Z" stroke="#00CFC7"></path></g><defs><clipPath id="clip0_11809_3137"><rect width="30" height="30" fill="white" transform="translate(0 0.191406)"></rect></clipPath></defs></svg> 