<?xml version="1.0" encoding="UTF-8"?> <svg xmlns="http://www.w3.org/2000/svg" id="Layer_2" data-name="Layer 2" width="30" height="31" viewBox="0 0 30 31"><defs><style> .cls-1, .cls-2 { fill: none; } .cls-2 { stroke: #00cfc7; } </style></defs><g id="Layer_1-2" data-name="Layer 1"><g><path class="cls-2" d="M28,16.87v2.99c0,2.57-1.05,4.44-2.31,5.72-1.22,1.24-2.63,1.91-3.44,2.1-.8-.19-2.21-.86-3.44-2.1-1.26-1.28-2.31-3.15-2.31-5.72v-2.99l5.75-2.56,5.75,2.56ZM3.5,3.69h20c1.11,0,2,.89,2,2v6.23l-2.75-1.22v-3.01h-8.5v3.5h6.4l-7.36,3.27-.3.13v5.26c0,1.02.12,1.96.33,2.84H3.5c-1.11,0-2-.89-2-2V5.69c0-1.11.89-2,2-2ZM4.25,19.94h3.5v-3.5h-3.5v3.5ZM9.25,19.94h3.5v-3.5h-3.5v3.5ZM4.25,11.19h4.75v-4.75h-4.75v4.75Z"></path><rect class="cls-1" width="30" height="31"></rect></g></g></svg> 