<?xml version="1.0" encoding="UTF-8"?> <svg xmlns="http://www.w3.org/2000/svg" width="30" height="31" viewBox="0 0 30 31" fill="none"><g clip-path="url(#clip0_11809_3037)"><path d="M1.7998 19.8916H6.59961C7.31481 19.8916 7.90028 20.4762 7.90039 21.1914V24.1914C7.90039 24.9067 7.31487 25.4912 6.59961 25.4912H1.7998C1.08463 25.4911 0.5 24.9066 0.5 24.1914V21.1914C0.500106 20.4763 1.08469 19.8917 1.7998 19.8916ZM12.5996 19.8916H17.4004C18.1154 19.8918 18.7001 20.4764 18.7002 21.1914V24.1914C18.7002 24.9065 18.1155 25.491 17.4004 25.4912H12.5996C11.8845 25.491 11.2998 24.9065 11.2998 24.1914V21.1914C11.2999 20.4764 11.8846 19.8918 12.5996 19.8916ZM23.4004 19.8916H28.2002C28.9153 19.8917 29.4999 20.4763 29.5 21.1914V24.1914C29.5 24.9066 28.9154 25.4911 28.2002 25.4912H23.4004C22.6851 25.4912 22.0996 24.9067 22.0996 24.1914V21.1914C22.0997 20.4762 22.6852 19.8916 23.4004 19.8916ZM15.0996 12.6914V13.8916H23.4004C24.7788 13.8918 25.9004 15.0132 25.9004 16.3916V17.6914H25.7002V16.3916C25.7002 15.1242 24.6678 14.092 23.4004 14.0918H15.0996V17.6914H14.9004V14.0918H6.59961C5.33224 14.092 4.2998 15.1242 4.2998 16.3916V17.6914H4.09961V16.3916C4.09961 15.0132 5.22124 13.8918 6.59961 13.8916H14.9004V12.6914H15.0996ZM12.5996 4.8916H17.4004C18.1154 4.89181 18.7001 5.47636 18.7002 6.19141V9.19141C18.7002 9.90654 18.1155 10.491 17.4004 10.4912H12.5996C11.8845 10.491 11.2998 9.90654 11.2998 9.19141V6.19141C11.2999 5.47636 11.8846 4.89181 12.5996 4.8916Z" stroke="#00CFC7"></path></g><defs><clipPath id="clip0_11809_3037"><rect width="30" height="30" fill="white" transform="translate(0 0.19165)"></rect></clipPath></defs></svg> 