<?xml version="1.0" encoding="UTF-8"?> <svg xmlns="http://www.w3.org/2000/svg" width="30" height="31" viewBox="0 0 30 31" fill="none"><g clip-path="url(#clip0_11809_3157)"><path d="M28 19.6914V21.9414H26.75V25.9414H28V28.1914H3.25V25.9414H4.5V21.9414H3.25V19.6914H28ZM23 25.9414H23.25V21.9414H23V25.9414ZM19.25 25.9414H19.5V21.9414H19.25V25.9414ZM15.5 25.9414H15.75V21.9414H15.5V25.9414ZM11.75 25.9414H12V21.9414H11.75V25.9414ZM8 25.9414H8.25V21.9414H8V25.9414ZM24.25 13.4414V15.6914H23V19.4414H19.5V15.6914H19.25V19.4414H15.75V15.6914H15.5V19.4414H12V15.6914H11.75V19.4414H8.25V15.6914H7V13.4414H24.25ZM15.625 3.44141C16.611 3.44141 17.3845 4.21292 17.4893 5.13477L17.5518 5.69141H17.1406V6.15723C19.4243 6.7422 21.1653 8.60105 21.6016 10.9414H23V13.1914H8.25V10.9414H9.64844C10.0847 8.60105 11.8257 6.7422 14.1094 6.15723V5.69141H13.6982L13.7607 5.13574C13.8654 4.20716 14.6402 3.44141 15.625 3.44141Z" stroke="#00CFC7"></path></g><defs><clipPath id="clip0_11809_3157"><rect width="30" height="30" fill="white" transform="translate(0 0.191406)"></rect></clipPath></defs></svg> 