<?xml version="1.0" encoding="UTF-8"?>
<svg id="Layer_1" data-name="Layer 1" xmlns="http://www.w3.org/2000/svg" width="190" height="36.63" viewBox="0 0 190 36.63">
  <defs>
    <style>
      .cls-1 {
        fill: #fff;
      }
    </style>
  </defs>
  <path class="cls-1" d="M18.31,0C8.2,0,0,8.2,0,18.32s8.2,18.32,18.31,18.32,18.31-8.2,18.31-18.32S28.42,0,18.31,0ZM3.14,18.32c0-.58.04-1.16.1-1.72,2.77-4.85,8.49-7.54,14.21-6.21.66.15,1.29.36,1.89.63,1.97.88,3.57,2.33,4.63,4.12.01.02.02.04.03.06-.01-.02-.02-.04-.04-.06-1.08-1.77-2.85-3.12-5.02-3.62-5.38-1.24-10.75,2.11-11.99,7.5-1.19,5.17,1.01,10.33,5.14,13.15-5.28-2.37-8.95-7.68-8.95-13.84ZM21.47,30.65c-5.31,0-9.62-4.31-9.62-9.62,0-4.25,3.44-7.7,7.69-7.7,1.73,0,3.29.71,4.41,1.86h0s.02.01.03.01c.01,0,.02,0,.03-.01,0,0,.01-.02.01-.03h0s0-.01,0-.02c0,0,0,0,0,0-1.79-3.05-4.79-5.36-8.51-6.22-3.29-.76-6.58-.5-9.53.57,2.75-3.84,7.25-6.34,12.33-6.34,8.37,0,15.16,6.79,15.16,15.17,0,1.17-.13,2.31-.38,3.4-1.36,5.14-6.05,8.93-11.62,8.93h0Z"/>
  <path class="cls-1" d="M103.45,21.29h17.66v-3.98h-13.37v-3.55h10.53v-3.98h-10.53v-3.04h13.37v-3.93h-17.66v18.49Z"/>
  <path class="cls-1" d="M140.48,12.49c.64-.56,1.11-1.23,1.42-2,.31-.77.47-1.57.47-2.4,0-1.02-.21-1.93-.63-2.72-.42-.79-1.05-1.42-1.88-1.88-.83-.46-1.85-.69-3.06-.69h-12.75v18.49h4.29v-7.53h5.13l4.33,7.53h4.86l-4.53-7.69c.93-.18,1.72-.55,2.35-1.11h0ZM138.06,8.29c0,.43-.12.79-.34,1.07-.23.28-.54.42-.92.42h-8.46v-3.04h8.46c.41,0,.73.11.94.33.21.22.32.54.32.96v.27Z"/>
  <path class="cls-1" d="M149.72,2.8h-4.29v18.49h4.29V2.8Z"/>
  <path class="cls-1" d="M159.03,7.34c.73-.52,1.61-.78,2.63-.78,1.21,0,2.23.37,3.06,1.12.83.75,1.38,1.69,1.64,2.83l.07.31h4.53l-.07-.44c-.22-1.44-.74-2.76-1.54-3.97-.81-1.21-1.87-2.17-3.19-2.9-1.32-.73-2.82-1.09-4.51-1.09-1.94,0-3.62.46-5.03,1.38-1.41.92-2.49,2.11-3.22,3.58-.73,1.47-1.1,3.02-1.1,4.64s.37,3.18,1.1,4.66c.73,1.47,1.81,2.67,3.22,3.59,1.41.92,3.09,1.38,5.03,1.38,1.7,0,3.21-.36,4.52-1.08,1.31-.72,2.37-1.68,3.18-2.89.81-1.21,1.32-2.54,1.54-3.99l.07-.42h-4.53l-.07.29c-.27,1.14-.82,2.09-1.65,2.83-.84.75-1.85,1.12-3.05,1.12-1.02,0-1.9-.26-2.63-.78-.73-.52-1.29-1.2-1.67-2.04-.38-.84-.57-1.73-.57-2.67s.19-1.82.57-2.66c.38-.84.93-1.51,1.67-2.03h0Z"/>
  <path class="cls-1" d="M187.69,11.06c-1.55-.78-3.61-1.17-6.19-1.17-.55,0-.99,0-1.31-.02-.67-.06-1.14-.13-1.42-.2-.95-.21-1.42-.63-1.42-1.27,0-.76.42-1.3,1.27-1.62.65-.25,1.56-.38,2.73-.38,1.07,0,2,.17,2.81.52.81.35,1.2.87,1.19,1.57v.38h4.31v-.38c0-1.33-.39-2.46-1.18-3.37-.79-.91-1.81-1.59-3.08-2.03-1.27-.44-2.62-.67-4.05-.67-2.44,0-4.44.47-5.99,1.41-1.55.94-2.32,2.46-2.32,4.57,0,1.47.37,2.6,1.11,3.39.74.79,1.7,1.33,2.89,1.61,1.18.28,2.58.42,4.18.42,1.26,0,2.23.09,2.93.27,1.04.24,1.56.7,1.56,1.4,0,.43-.12.79-.37,1.07-.24.28-.59.51-1.03.69-.77.3-1.75.44-2.95.44-.44,0-.93-.04-1.44-.11-.52-.07-.99-.19-1.42-.36-.99-.37-1.49-.92-1.49-1.64v-.38h-4.31v.38c0,1.36.42,2.5,1.27,3.41.84.91,1.92,1.58,3.24,2.01,1.32.43,2.7.64,4.15.64,2.53,0,4.61-.48,6.23-1.44,1.62-.96,2.43-2.53,2.43-4.71s-.77-3.66-2.32-4.43h0Z"/>
  <path class="cls-1" d="M69.07,2.8l-7.31,18.49h4.55l2.29-5.42h6.51l2.47,5.42h4.6l-7.35-18.49h-5.75ZM69.94,11.91c1.19-2.89,1.81-4.58,1.89-5.07l1.95,5.07h-3.84Z"/>
  <path class="cls-1" d="M91.53,17.27l-5.75-14.47h-4.62l7.31,18.49h5.75l7.35-18.49h-4.55c-3.6,9.08-5.43,13.9-5.49,14.47Z"/>
  <path class="cls-1" d="M50.87,9.58l-5.23-6.78h-3.75v18.49h4.29v-11.33l4.7,6.48,4.7-6.48v11.33h4.29V2.8h-3.75l-5.23,6.78Z"/>
  <path class="cls-1" d="M41.85,33.89v-9.72h5.98c.77,0,1.37.25,1.81.75.43.5.65,1.15.65,1.96,0,.43-.1.84-.29,1.22-.19.37-.45.6-.78.69.27.05.51.18.73.41.22.22.4.51.53.86.13.35.19.72.19,1.12,0,.81-.22,1.47-.65,1.98-.43.5-1.03.75-1.8.75h-6.37ZM47.83,28.4c.44,0,.8-.12,1.07-.36s.41-.59.41-1.05v-.33c0-.44-.14-.82-.41-1.12-.27-.31-.62-.47-1.07-.47h-5.01v3.33h5.01ZM48.22,32.98c.31,0,.57-.08.8-.24.22-.17.39-.38.51-.64.12-.27.18-.54.18-.82v-.33c0-.44-.14-.82-.41-1.14-.27-.32-.62-.48-1.07-.48h-5.41v3.65h5.41ZM54.54,29.78l-3.7-5.62h1.06l2.94,4.23h.36l2.92-4.23h1.06l-3.68,5.62v4.11h-.96v-4.11ZM68,31.94c.65,0,1.18-.08,1.6-.24.24-.1.43-.22.55-.37.14-.15.2-.35.2-.58,0-.38-.28-.63-.84-.76-.38-.1-.91-.14-1.59-.14-.87,0-1.62-.08-2.27-.23-.64-.15-1.16-.44-1.57-.87-.4-.43-.6-1.05-.6-1.84,0-1.14.42-1.96,1.25-2.47.84-.51,1.93-.77,3.25-.77.78,0,1.51.12,2.19.36.69.24,1.25.61,1.67,1.11.43.49.64,1.1.64,1.82v.2h-2.34v-.2c0-.38-.21-.66-.65-.84-.43-.19-.94-.29-1.52-.29-.63,0-1.13.07-1.48.2-.46.18-.69.47-.69.88,0,.35.26.57.77.69.15.04.41.08.77.11.18,0,.41.01.71.01,1.4,0,2.51.21,3.35.64.84.42,1.27,1.22,1.27,2.4s-.44,2.03-1.33,2.55c-.88.52-2,.78-3.37.78-.79,0-1.54-.12-2.25-.35-.71-.23-1.3-.59-1.76-1.08-.46-.5-.69-1.12-.69-1.86v-.2h2.34v.2c0,.39.27.69.81.89.23.09.49.15.77.19.28.04.54.06.78.06ZM73.2,23.87h9.75v2.13h-3.7v7.89h-2.34v-7.89h-3.71v-2.13ZM84.16,33.89v-10.03h6.92c.66,0,1.21.12,1.66.37s.79.59,1.01,1.02c.23.43.35.92.35,1.47,0,.45-.08.88-.25,1.3-.17.42-.43.78-.77,1.08-.35.31-.77.51-1.28.6l2.46,4.17h-2.64l-2.35-4.08h-2.78v4.08h-2.33ZM86.48,27.65h4.59c.21,0,.37-.08.49-.23.13-.15.19-.35.19-.58v-.14c0-.22-.06-.4-.18-.52-.11-.12-.28-.18-.51-.18h-4.59v1.65ZM97.38,33.89h-2.47l3.96-10.03h3.12l3.99,10.03h-2.49l-1.34-2.94h-3.53l-1.24,2.94ZM101.42,28.81l-1.06-2.75c-.04.27-.38,1.18-1.02,2.75h2.08ZM105.37,23.87h9.75v2.13h-3.7v7.89h-2.34v-7.89h-3.71v-2.13ZM116.98,33.89h-2.47l3.96-10.03h3.12l3.99,10.03h-2.49l-1.34-2.94h-3.53l-1.24,2.94ZM121.03,28.81l-1.06-2.75c-.04.27-.38,1.18-1.02,2.75h2.08Z"/>
</svg>
