<?xml version="1.0" encoding="UTF-8"?> <svg xmlns="http://www.w3.org/2000/svg" width="144" height="34" viewBox="0 0 144 34" fill="none"><g clip-path="url(#clip0_11809_3020)"><mask id="mask0_11809_3020" style="mask-type:luminance" maskUnits="userSpaceOnUse" x="-257" y="-68" width="507" height="378"><path d="M-256.23 309.883H249.396V-67.9632H-256.23V309.883Z" fill="white"></path></mask><g mask="url(#mask0_11809_3020)"><path d="M142.203 11.2275L141.793 16.1357H139.781C136.569 16.1357 134.9 18.7011 134.9 21.1596V32.245H129.207V11.2275H134.599L134.722 13.8508C135.853 12.0519 137.833 11.2275 140.274 11.2275H142.203ZM102.736 32.2448H97.0384V21.134C97.0384 18.8072 96.8367 15.8785 93.552 15.8785C90.3887 15.8785 89.1284 18.1532 89.1284 20.802V32.2448H83.4325V11.2273H88.7135L88.8341 13.9142C89.966 12.1153 92.0741 10.7146 95.1838 10.7146C100.924 10.7146 102.736 14.7984 102.736 19.0482V32.2448ZM80.948 27.3352L80.5496 32.1174C79.1834 32.4826 77.9704 32.6136 76.5027 32.6136C71.1343 32.6136 69.5772 30.1608 69.5772 25.231V5.30057H75.2744V11.2278H80.9436L80.5496 16.1353H75.2744V24.8041C75.2744 26.7824 75.8189 27.8511 77.8555 27.8511C78.741 27.8511 79.7261 27.7448 80.948 27.3352ZM67.7065 11.2275L67.2653 16.1357H65.7172C62.5117 16.1357 60.9175 18.6979 60.9175 21.1596V32.245H55.2197V11.2275H60.6143L60.7266 13.8508C61.8643 12.0519 63.844 11.2275 66.2885 11.2275H67.7065ZM29.5091 29.9164C25.6447 31.9761 21.7849 33.1643 16.6865 33.0167C7.2347 32.7292 0.415771 26.8815 0.415771 17.0041C0.415771 7.16993 7.30047 0.886517 16.6909 0.738937C21.451 0.666424 25.7105 1.86993 29.0398 4.79729L25.0293 8.83971C22.9691 7.08979 19.9379 6.06694 16.3155 6.23042C10.4057 6.50458 6.84463 10.7836 6.7661 16.667C6.68885 23.0414 10.6119 27.4343 16.7446 27.5946C19.6302 27.6665 21.6974 27.2804 23.4862 26.4801V19.9645H17.1123L17.5426 14.6206H29.5091V29.9164ZM126.663 23.7336H111.043C111.488 26.4192 113.607 28.0349 116.245 28.1081C118.81 28.1774 120.245 27.4052 122.122 25.5121L125.839 28.3364C123.198 31.5786 120.027 32.7586 116.416 32.7586C110.063 32.7586 105.305 28.3332 105.305 21.7356C105.305 15.1449 110.04 10.7144 116.178 10.7144C122.943 10.7144 126.663 14.7982 126.663 22.0473V23.7336ZM120.955 19.3394C120.781 16.6843 118.784 15.0056 116.035 15.1125C113.267 15.2168 111.425 17.0125 111.043 19.3394H120.955ZM51.6329 18.482V32.2448H46.6098L46.4854 30.1724C44.9442 32.0743 42.4422 32.7588 39.8662 32.7588C35.9872 32.7588 32.3221 30.853 32.2455 26.4143C32.1299 19.4375 40.1261 18.9419 45.1479 18.9419H46.1515V18.6659C46.1515 16.3587 44.6193 15.1126 41.7343 15.1126C39.6632 15.1126 37.619 15.9402 36.1072 17.3523L32.82 14.0248C35.8046 11.614 38.9099 10.7146 42.2182 10.7146C48.7524 10.7146 51.6329 13.7233 51.6329 18.482ZM46.1515 23.0792H45.3592C42.6619 23.0849 37.9242 23.2172 37.9421 26.0275C37.9676 29.9866 46.1515 28.7284 46.1515 23.9538V23.0792ZM137.759 29.8C137.759 28.4623 138.772 27.454 140.072 27.454C141.355 27.454 142.37 28.4623 142.37 29.8C142.37 31.1612 141.355 32.1663 140.072 32.1663C138.772 32.1663 137.759 31.1612 137.759 29.8ZM140.072 32.6364C141.618 32.6364 142.938 31.4392 142.938 29.8C142.938 28.1773 141.618 26.9827 140.072 26.9827C138.511 26.9827 137.19 28.1773 137.19 29.8C137.19 31.4392 138.511 32.6364 140.072 32.6364ZM139.471 30.0264H140.042L140.903 31.4392H141.46L140.53 30.0035C141.011 29.945 141.378 29.688 141.378 29.1047C141.378 28.4622 140.995 28.1773 140.222 28.1773H138.977V31.4392H139.471V30.0264ZM139.471 29.606V28.5977H140.146C140.492 28.5977 140.859 28.6722 140.859 29.0761C140.859 29.5767 140.484 29.606 140.065 29.606H139.471Z" fill="white"></path></g></g><defs><clipPath id="clip0_11809_3020"><rect width="143.2" height="32.8167" fill="white" transform="translate(0 0.375)"></rect></clipPath></defs></svg> 