<?xml version="1.0" encoding="UTF-8"?><svg id="Layer_1" xmlns="http://www.w3.org/2000/svg" xmlns:xlink="http://www.w3.org/1999/xlink" width="18" height="18" viewBox="0 0 18 18"><defs><style>.cls-1{fill:none;}.cls-2{mask:url(#mask);}.cls-3{fill:#fff;fill-rule:evenodd;}</style><mask id="mask" x="1.78" y="2.14" width="14.45" height="13.71" maskUnits="userSpaceOnUse"><g id="mask0_4433_4054"><path class="cls-3" d="m1.78,2.14h14.45v13.71H1.78V2.14Z"/></g></mask></defs><rect class="cls-1" width="18" height="18"/><g class="cls-2"><path class="cls-3" d="m11.41,9.65c-.76,0-1.37.62-1.37,1.38v4.83h-3.44s.04-8.27,0-8.96h3.44v1.02s1.06-.99,2.71-.99c2.04,0,3.48,1.48,3.48,4.35v4.59h-3.44v-4.83c0-.76-.62-1.38-1.37-1.38ZM3.51,5.52h-.02c-1.04,0-1.71-.81-1.71-1.71s.69-1.66,1.75-1.66,1.71.77,1.73,1.69c0,.9-.67,1.69-1.75,1.69Zm-1.71,10.34h3.44V6.89H1.79v8.96Z"/></g></svg>
