<?xml version="1.0" encoding="UTF-8"?><svg id="Layer_1" xmlns="http://www.w3.org/2000/svg" viewBox="0 0 1060 200"><defs><style>.cls-1{fill:#03212a;}.cls-2{fill:#04485c;}.cls-3{fill:#00837d;}.cls-4{fill:#453992;}</style></defs><path class="cls-4" d="m100,189.74c-23.97,0-46.5-9.33-63.45-26.28-16.95-16.95-26.28-39.48-26.28-63.45s9.33-46.5,26.28-63.45c16.95-16.95,39.48-26.28,63.45-26.28s46.5,9.33,63.45,26.28c16.95,16.95,26.28,39.48,26.28,63.45s-9.33,46.5-26.28,63.45c-16.95,16.95-39.48,26.28-63.45,26.28Zm6.1-114.47c-21,0-38.08,17.08-38.08,38.08,0,26.21,21.33,47.54,47.54,47.54s50.48-18.13,57.37-44.09c1.26-5.48,1.89-11.13,1.89-16.8,0-19.98-7.78-38.77-21.91-52.9-14.13-14.13-32.92-21.91-52.9-21.91-12.09,0-24.11,2.95-34.74,8.54-10.29,5.41-19.32,13.27-26.11,22.74l-.5.69.8-.29c9.03-3.27,18.46-4.92,28.03-4.92,6.26,0,12.55.72,18.7,2.14,8.91,2.06,17.1,5.83,24.36,11.21,6.9,5.11,12.63,11.44,17.04,18.81-5.74-5.71-13.35-8.84-21.49-8.84Z"/><path class="cls-3" d="m95.81,61.01c3.24.75,6.34,1.79,9.28,3.09,9.7,4.31,17.56,11.45,22.75,20.24.06.1.12.2.17.29,0,.02.02.03.03.05,0,0,0,0,0,0,.04-.04.07-.09.07-.15,0-.01,0-.02,0-.03,0-.02,0-.04-.02-.05l-.02-.03c-8.82-14.97-23.56-26.36-41.83-30.58-16.18-3.74-32.35-2.47-46.89,2.79-7.22,10.07-11.98,22.01-13.44,34.95,13.62-23.87,41.73-37.07,69.89-30.57Z"/><path class="cls-2" d="m69.45,168.02c-20.33-13.85-31.14-39.22-25.28-64.63,6.11-26.46,32.51-42.95,58.96-36.84,10.71,2.47,19.38,9.1,24.7,17.79,0,0,0,0,0,0-5.19-8.78-13.06-15.93-22.75-20.24-2.93-1.3-6.03-2.34-9.28-3.09-28.16-6.5-56.27,6.69-69.89,30.57-.31,2.76-.47,5.58-.47,8.42,0,30.29,18.06,56.35,44,68.02Z"/><path class="cls-1" d="m100,10C50.29,10,10,50.29,10,100s40.29,90,90,90,90-40.29,90-90S149.71,10,100,10ZM25.45,100c0-41.17,33.38-74.55,74.55-74.55s74.55,33.38,74.55,74.55c0,5.75-.65,11.35-1.88,16.73-6.71,25.27-29.74,43.89-57.12,43.89s-47.27-21.16-47.27-47.27c0-20.89,16.93-37.82,37.82-37.82,8.5,0,16.17,3.49,21.67,9.13,0,0,0,0,.01.01.04.03.08.05.14.05.05,0,.09-.02.13-.05,0-.02-.02-.03-.03-.05-.06-.1-.12-.2-.18-.29-5.32-8.69-13.99-15.32-24.7-17.79-26.46-6.11-52.85,10.39-58.96,36.84-5.87,25.41,4.95,50.78,25.28,64.63-25.94-11.67-44-37.74-44-68.02Z"/><path class="cls-1" d="m377.49,48.68l-40.63,102.76h25.32l12.72-30.14h36.19l13.71,30.14h25.57l-40.88-102.76h-31.99Zm4.82,50.64c6.59-16.06,10.08-25.44,10.5-28.16l10.87,28.16h-21.37Z"/><path class="cls-1" d="m502.36,129.09l-31.99-80.41h-25.69l40.64,102.76h31.99l40.88-102.76h-25.32c-20.01,50.48-30.18,77.28-30.51,80.41Z"/><polygon class="cls-1" points="568.68 151.44 666.87 151.44 666.87 129.33 592.52 129.33 592.52 109.57 651.06 109.57 651.06 87.46 592.52 87.46 592.52 70.54 666.87 70.54 666.87 48.68 568.68 48.68 568.68 151.44"/><path class="cls-1" d="m774.57,102.53c3.54-3.13,6.18-6.83,7.9-11.12,1.73-4.28,2.59-8.73,2.59-13.34,0-5.68-1.17-10.72-3.52-15.13-2.35-4.4-5.83-7.88-10.44-10.44-4.61-2.55-10.29-3.83-17.04-3.83h-70.9v102.76h23.84v-41.87h28.53l24.08,41.87h27.05l-25.2-42.73c5.19-.99,9.55-3.04,13.09-6.18Zm-13.46-23.34c0,2.39-.64,4.37-1.91,5.93-1.28,1.57-2.99,2.35-5.13,2.35h-47.06v-16.92h47.06c2.3,0,4.05.62,5.25,1.85,1.19,1.24,1.79,3.01,1.79,5.31v1.48Z"/><rect class="cls-1" x="802.11" y="48.68" width="23.84" height="102.76"/><path class="cls-1" d="m877.76,73.88c4.08-2.88,8.95-4.32,14.64-4.32,6.75,0,12.43,2.08,17.04,6.24,4.61,4.16,7.66,9.41,9.14,15.75l.37,1.73h25.2l-.37-2.47c-1.24-7.99-4.1-15.33-8.58-22.05-4.49-6.71-10.4-12.08-17.72-16.12-7.33-4.03-15.69-6.05-25.07-6.05-10.79,0-20.11,2.55-27.97,7.66-7.86,5.11-13.83,11.73-17.91,19.89-4.08,8.15-6.11,16.76-6.11,25.81s2.04,17.68,6.11,25.88c4.08,8.19,10.04,14.84,17.91,19.95,7.86,5.11,17.19,7.66,27.97,7.66,9.47,0,17.85-2,25.13-5.99,7.29-3.99,13.17-9.34,17.66-16.06,4.49-6.71,7.35-14.1,8.58-22.17l.37-2.35h-25.2l-.37,1.61c-1.48,6.34-4.55,11.59-9.2,15.75-4.65,4.16-10.31,6.24-16.98,6.24-5.68,0-10.56-1.44-14.64-4.32-4.08-2.88-7.16-6.67-9.26-11.36-2.1-4.69-3.15-9.63-3.15-14.82s1.05-10.11,3.15-14.76c2.1-4.65,5.19-8.42,9.26-11.3Z"/><path class="cls-1" d="m1037.09,94.57c-8.61-4.32-20.07-6.48-34.4-6.48-3.05,0-5.48-.04-7.29-.12-3.71-.33-6.34-.7-7.91-1.11-5.27-1.15-7.9-3.5-7.9-7.04,0-4.2,2.35-7.2,7.04-9.02,3.62-1.4,8.69-2.1,15.19-2.1,5.93,0,11.14.97,15.62,2.9,4.49,1.94,6.69,4.84,6.61,8.71v2.1h23.96v-2.1c0-7.41-2.18-13.65-6.55-18.71-4.37-5.06-10.07-8.83-17.11-11.3-7.04-2.47-14.55-3.71-22.54-3.71-13.59,0-24.68,2.62-33.29,7.84-8.6,5.23-12.91,13.69-12.91,25.38,0,8.15,2.06,14.43,6.17,18.83,4.12,4.41,9.47,7.39,16.06,8.96,6.59,1.56,14.33,2.35,23.22,2.35,7,0,12.43.49,16.3,1.48,5.76,1.32,8.65,3.91,8.65,7.78,0,2.39-.68,4.37-2.04,5.93-1.36,1.57-3.27,2.84-5.74,3.83-4.28,1.65-9.76,2.47-16.43,2.47-2.47,0-5.15-.2-8.03-.62-2.88-.41-5.52-1.07-7.91-1.98-5.52-2.06-8.28-5.1-8.28-9.14v-2.1h-23.96v2.1c0,7.58,2.35,13.9,7.04,18.96,4.69,5.06,10.7,8.79,18.03,11.18,7.33,2.39,15.03,3.58,23.1,3.58,14.08,0,25.63-2.67,34.65-8.03,9.02-5.35,13.52-14.08,13.52-26.18s-4.3-20.32-12.91-24.64Z"/><polygon class="cls-1" points="276.27 86.36 247.19 48.68 226.31 48.68 226.31 151.44 250.15 151.44 250.15 88.45 276.27 124.48 302.39 88.45 302.39 151.44 326.23 151.44 326.23 48.68 305.36 48.68 276.27 86.36"/></svg>