<?xml version="1.0" encoding="UTF-8"?><svg id="Layer_1" xmlns="http://www.w3.org/2000/svg" viewBox="0 0 600 490"><defs><style>.cls-1{fill:#fff;}.cls-2{fill:#453992;}</style></defs><circle class="cls-2" cx="300" cy="454.36" r=".29"/><path class="cls-1" d="m293.02,95.02c5.41,1.25,10.57,2.99,15.46,5.16,16.16,7.18,29.27,19.09,37.92,33.73.1.16.19.33.29.49.02.03.03.05.05.08,0,0,0,0,0,0,.07-.06.12-.15.12-.26,0-.02,0-.04,0-.06,0-.03-.02-.06-.03-.09l-.03-.05c-14.69-24.96-39.27-43.93-69.71-50.96-26.97-6.23-53.92-4.11-78.14,4.65-12.03,16.78-19.97,36.68-22.4,58.25,22.71-39.79,69.55-61.78,116.48-50.94Z"/><path class="cls-1" d="m300,10c-82.84,0-150,67.16-150,150s67.16,150,150,150,150-67.16,150-150S382.84,10,300,10Zm-124.25,150c0-68.62,55.63-124.25,124.25-124.25s124.25,55.63,124.25,124.25c0,9.59-1.09,18.92-3.14,27.88-11.18,42.11-49.56,73.15-95.19,73.15s-78.79-35.27-78.79-78.79c0-34.81,28.22-63.03,63.03-63.03,14.17,0,26.95,5.81,36.11,15.22,0,0,.01.01.02.02.06.06.14.09.23.09.08,0,.15-.03.21-.08-.02-.03-.03-.05-.05-.08-.1-.16-.2-.33-.3-.49-8.86-14.48-23.31-25.53-41.17-29.66-44.09-10.18-88.09,17.31-98.27,61.41-9.78,42.35,8.25,84.63,42.13,107.72-43.23-19.45-73.33-62.89-73.33-113.37Z"/><path class="cls-1" d="m119.62,353.37l-28.12,71.11h17.52l8.8-20.85h25.04l9.49,20.85h17.69l-28.29-71.11h-22.14Zm3.33,35.04c4.56-11.11,6.98-17.61,7.26-19.49l7.52,19.49h-14.79Z"/><path class="cls-1" d="m206.03,409.01l-22.14-55.64h-17.78l28.12,71.11h22.14l28.29-71.11h-17.52c-13.85,34.93-20.88,53.48-21.11,55.64Z"/><polygon class="cls-1" points="251.92 424.48 319.87 424.48 319.87 409.19 268.42 409.19 268.42 395.51 308.93 395.51 308.93 380.21 268.42 380.21 268.42 368.5 319.87 368.5 319.87 353.37 251.92 353.37 251.92 424.48"/><path class="cls-1" d="m394.4,390.64c2.45-2.16,4.27-4.73,5.47-7.69,1.2-2.96,1.79-6.04,1.79-9.23,0-3.93-.81-7.42-2.44-10.47-1.62-3.05-4.03-5.46-7.22-7.22-3.19-1.77-7.12-2.65-11.79-2.65h-49.06v71.11h16.5v-28.97h19.74l16.67,28.97h18.72l-17.44-29.57c3.59-.68,6.61-2.11,9.06-4.27Zm-9.32-16.15c0,1.65-.44,3.02-1.32,4.1-.88,1.08-2.07,1.62-3.55,1.62h-32.56v-11.71h32.56c1.59,0,2.81.43,3.63,1.28.83.85,1.24,2.08,1.24,3.68v1.03Z"/><rect class="cls-1" x="413.46" y="353.37" width="16.5" height="71.11"/><path class="cls-1" d="m465.81,370.81c2.82-1.99,6.2-2.99,10.13-2.99,4.67,0,8.6,1.44,11.8,4.32,3.19,2.88,5.3,6.51,6.32,10.9l.26,1.2h17.44l-.26-1.71c-.85-5.53-2.84-10.61-5.94-15.26-3.11-4.64-7.19-8.36-12.26-11.15-5.07-2.79-10.86-4.19-17.35-4.19-7.47,0-13.92,1.77-19.36,5.3-5.44,3.53-9.57,8.12-12.39,13.76-2.82,5.64-4.23,11.6-4.23,17.86s1.41,12.24,4.23,17.91c2.82,5.67,6.95,10.27,12.39,13.8,5.44,3.53,11.89,5.3,19.36,5.3,6.55,0,12.35-1.38,17.39-4.15,5.04-2.76,9.12-6.47,12.22-11.11,3.1-4.64,5.09-9.76,5.94-15.34l.26-1.62h-17.44l-.26,1.11c-1.03,4.39-3.15,8.02-6.37,10.9-3.22,2.88-7.14,4.32-11.75,4.32-3.93,0-7.31-1-10.13-2.99-2.82-1.99-4.96-4.62-6.41-7.86-1.45-3.25-2.18-6.67-2.18-10.26s.73-6.99,2.18-10.21c1.45-3.22,3.59-5.83,6.41-7.82Z"/><path class="cls-1" d="m576.07,385.13c-5.96-2.99-13.89-4.49-23.8-4.49-2.11,0-3.79-.03-5.04-.09-2.56-.23-4.39-.48-5.47-.77-3.65-.8-5.47-2.42-5.47-4.87,0-2.91,1.62-4.99,4.87-6.24,2.51-.97,6.01-1.45,10.51-1.45,4.1,0,7.71.67,10.81,2.01,3.1,1.34,4.63,3.35,4.57,6.03v1.45h16.58v-1.45c0-5.13-1.51-9.44-4.53-12.95-3.02-3.5-6.97-6.11-11.84-7.82-4.87-1.71-10.07-2.56-15.6-2.56-9.4,0-17.08,1.81-23.03,5.43-5.95,3.62-8.93,9.47-8.93,17.56,0,5.64,1.42,9.99,4.27,13.03,2.85,3.05,6.55,5.12,11.11,6.2,4.56,1.08,9.91,1.62,16.07,1.62,4.84,0,8.6.34,11.28,1.03,3.99.91,5.98,2.71,5.98,5.38,0,1.65-.47,3.02-1.41,4.1-.94,1.08-2.27,1.97-3.97,2.65-2.96,1.14-6.75,1.71-11.37,1.71-1.71,0-3.56-.14-5.56-.43-2-.28-3.82-.74-5.47-1.37-3.82-1.42-5.73-3.53-5.73-6.33v-1.45h-16.58v1.45c0,5.24,1.62,9.62,4.87,13.12,3.25,3.5,7.41,6.08,12.48,7.74,5.07,1.65,10.4,2.48,15.98,2.48,9.74,0,17.74-1.85,23.98-5.56,6.24-3.7,9.36-9.74,9.36-18.12s-2.98-14.06-8.93-17.05Z"/><polygon class="cls-1" points="49.57 379.45 29.44 353.37 15 353.37 15 424.48 31.5 424.48 31.5 380.89 49.57 405.82 67.65 380.89 67.65 424.48 84.15 424.48 84.15 353.37 69.7 353.37 49.57 379.45"/><path class="cls-1" d="m15,470.91v-27.01h4.42v27.01h-4.42Z"/><path class="cls-1" d="m32.97,471.28c-2.55,0-4.54-.92-5.97-2.77-1.43-1.85-2.14-4.44-2.14-7.78s.72-5.96,2.17-7.82c1.45-1.87,3.45-2.8,6.01-2.8s4.73.99,6.13,2.97h.22c-.21-1.47-.31-2.62-.31-3.47v-7.44h4.36v28.74h-3.4l-.76-2.68h-.2c-1.39,2.03-3.43,3.05-6.11,3.05Zm1.16-3.51c1.79,0,3.09-.5,3.9-1.51.81-1,1.23-2.63,1.26-4.89v-.61c0-2.57-.42-4.4-1.26-5.49-.84-1.08-2.15-1.63-3.93-1.63-1.53,0-2.7.62-3.53,1.86-.83,1.24-1.24,3-1.24,5.29s.4,3.99,1.2,5.18c.8,1.19,2,1.78,3.6,1.78Z"/><path class="cls-1" d="m58.58,471.28c-3.18,0-5.66-.93-7.45-2.78-1.79-1.85-2.69-4.41-2.69-7.66s.83-5.96,2.49-7.87c1.66-1.91,3.95-2.86,6.85-2.86,2.7,0,4.83.82,6.39,2.46,1.56,1.64,2.35,3.89,2.35,6.76v2.35h-13.61c.06,1.98.6,3.51,1.61,4.57,1.01,1.07,2.43,1.6,4.27,1.6,1.21,0,2.33-.11,3.37-.34,1.04-.23,2.16-.61,3.35-1.14v3.53c-1.06.5-2.13.86-3.21,1.07-1.08.21-2.32.31-3.71.31Zm-.79-17.88c-1.38,0-2.48.44-3.32,1.31-.83.87-1.33,2.15-1.49,3.82h9.27c-.02-1.69-.43-2.97-1.22-3.83s-1.87-1.3-3.25-1.3Z"/><path class="cls-1" d="m89.43,470.91h-4.36v-12.56c0-1.58-.32-2.75-.95-3.53s-1.64-1.16-3.02-1.16c-1.84,0-3.18.54-4.03,1.63s-1.27,2.9-1.27,5.45v10.18h-4.34v-20.43h3.4l.61,2.68h.22c.62-.97,1.49-1.72,2.62-2.25,1.13-.53,2.39-.79,3.77-.79,4.9,0,7.35,2.49,7.35,7.48v13.32Z"/><path class="cls-1" d="m103.08,467.77c1.06,0,2.12-.17,3.18-.5v3.27c-.48.21-1.1.38-1.86.53-.76.14-1.54.21-2.36.21-4.11,0-6.17-2.17-6.17-6.5v-11.01h-2.79v-1.92l2.99-1.59,1.48-4.32h2.68v4.54h5.82v3.29h-5.82v10.94c0,1.05.26,1.82.78,2.32.52.5,1.21.75,2.06.75Z"/><path class="cls-1" d="m110.08,445.07c0-.78.21-1.37.64-1.79.42-.42,1.03-.63,1.82-.63s1.36.21,1.78.63c.42.42.64,1.02.64,1.79s-.21,1.32-.64,1.75-1.02.64-1.78.64-1.39-.21-1.82-.64c-.42-.42-.64-1.01-.64-1.75Zm4.6,25.84h-4.34v-20.43h4.34v20.43Z"/><path class="cls-1" d="m128.5,467.77c1.06,0,2.12-.17,3.18-.5v3.27c-.48.21-1.1.38-1.86.53-.76.14-1.54.21-2.36.21-4.11,0-6.17-2.17-6.17-6.5v-11.01h-2.79v-1.92l2.99-1.59,1.48-4.32h2.68v4.54h5.82v3.29h-5.82v10.94c0,1.05.26,1.82.78,2.32.52.5,1.21.75,2.06.75Z"/><path class="cls-1" d="m132.66,450.48h4.73l4.16,11.58c.63,1.65,1.05,3.2,1.26,4.66h.15c.11-.68.31-1.5.61-2.47.3-.97,1.86-5.56,4.69-13.77h4.69l-8.74,23.15c-1.59,4.25-4.24,6.37-7.94,6.37-.96,0-1.9-.1-2.81-.31v-3.44c.65.15,1.4.22,2.24.22,2.09,0,3.57-1.21,4.42-3.64l.76-1.92-8.2-20.43Z"/><path class="cls-1" d="m190.31,457.37c0,4.4-1.1,7.81-3.3,10.25-2.2,2.44-5.31,3.66-9.34,3.66s-7.21-1.21-9.39-3.63c-2.19-2.42-3.28-5.86-3.28-10.32s1.1-7.88,3.3-10.27c2.2-2.39,5.34-3.58,9.41-3.58s7.12,1.21,9.31,3.64c2.19,2.43,3.29,5.84,3.29,10.25Zm-20.62,0c0,3.33.67,5.85,2.01,7.56,1.34,1.72,3.33,2.58,5.97,2.58s4.6-.85,5.94-2.55c1.34-1.7,2-4.23,2-7.59s-.66-5.83-1.99-7.54c-1.32-1.71-3.3-2.57-5.92-2.57s-4.65.86-5.99,2.57c-1.35,1.71-2.02,4.22-2.02,7.54Z"/><path class="cls-1" d="m206.01,450.11c.87,0,1.59.06,2.16.18l-.42,4.05c-.62-.15-1.26-.22-1.92-.22-1.74,0-3.14.57-4.22,1.7-1.08,1.13-1.62,2.6-1.62,4.42v10.68h-4.34v-20.43h3.4l.57,3.6h.22c.68-1.22,1.56-2.19,2.65-2.9,1.09-.71,2.26-1.07,3.52-1.07Z"/><path class="cls-1" d="m220.2,471.28c-3.09,0-5.44-.9-7.05-2.71-1.61-1.8-2.41-4.39-2.41-7.77s.84-6.08,2.52-7.92c1.68-1.85,4.11-2.77,7.29-2.77,2.15,0,4.09.4,5.82,1.2l-1.31,3.49c-1.84-.71-3.35-1.07-4.54-1.07-3.53,0-5.3,2.35-5.3,7.04,0,2.29.44,4.01,1.32,5.16.88,1.15,2.17,1.73,3.87,1.73,1.93,0,3.76-.48,5.49-1.44v3.79c-.78.46-1.6.78-2.48.98-.88.2-1.95.3-3.21.3Z"/><path class="cls-1" d="m248.67,470.91h-4.36v-12.56c0-1.58-.32-2.75-.95-3.53s-1.64-1.16-3.02-1.16c-1.82,0-3.16.55-4.02,1.64-.86,1.09-1.28,2.92-1.28,5.48v10.14h-4.34v-28.74h4.34v7.3c0,1.17-.07,2.42-.22,3.75h.28c.59-.99,1.41-1.75,2.47-2.29,1.05-.54,2.28-.81,3.69-.81,4.95,0,7.43,2.49,7.43,7.48v13.32Z"/><path class="cls-1" d="m263.63,471.28c-3.18,0-5.66-.93-7.45-2.78-1.79-1.85-2.69-4.41-2.69-7.66s.83-5.96,2.49-7.87c1.66-1.91,3.95-2.86,6.85-2.86,2.7,0,4.83.82,6.39,2.46,1.56,1.64,2.35,3.89,2.35,6.76v2.35h-13.61c.06,1.98.6,3.51,1.61,4.57,1.01,1.07,2.43,1.6,4.27,1.6,1.21,0,2.33-.11,3.37-.34,1.04-.23,2.16-.61,3.35-1.14v3.53c-1.06.5-2.13.86-3.21,1.07-1.08.21-2.32.31-3.71.31Zm-.79-17.88c-1.38,0-2.48.44-3.32,1.31-.83.87-1.33,2.15-1.49,3.82h9.27c-.02-1.69-.43-2.97-1.22-3.83s-1.87-1.3-3.25-1.3Z"/><path class="cls-1" d="m290.23,465.09c0,2-.73,3.53-2.18,4.59-1.45,1.07-3.53,1.6-6.24,1.6s-4.91-.41-6.56-1.24v-3.75c2.4,1.11,4.64,1.66,6.71,1.66,2.67,0,4.01-.81,4.01-2.42,0-.52-.15-.95-.44-1.29s-.78-.7-1.46-1.07c-.68-.37-1.62-.79-2.83-1.26-2.35-.91-3.94-1.82-4.78-2.73-.83-.91-1.25-2.09-1.25-3.55,0-1.75.7-3.11,2.12-4.07,1.41-.97,3.33-1.45,5.75-1.45s4.67.49,6.82,1.46l-1.4,3.27c-2.2-.91-4.06-1.37-5.56-1.37-2.29,0-3.44.65-3.44,1.96,0,.64.3,1.18.9,1.63.6.44,1.9,1.05,3.91,1.83,1.69.65,2.91,1.25,3.68,1.79.76.54,1.33,1.17,1.7,1.87.37.71.55,1.55.55,2.54Z"/><path class="cls-1" d="m302.53,467.77c1.06,0,2.12-.17,3.18-.5v3.27c-.48.21-1.1.38-1.86.53-.76.14-1.54.21-2.36.21-4.11,0-6.17-2.17-6.17-6.5v-11.01h-2.79v-1.92l2.99-1.59,1.48-4.32h2.68v4.54h5.82v3.29h-5.82v10.94c0,1.05.26,1.82.78,2.32.52.5,1.21.75,2.06.75Z"/><path class="cls-1" d="m320.16,450.11c.87,0,1.59.06,2.16.18l-.42,4.05c-.62-.15-1.26-.22-1.92-.22-1.74,0-3.14.57-4.22,1.7-1.08,1.13-1.62,2.6-1.62,4.42v10.68h-4.34v-20.43h3.4l.57,3.6h.22c.68-1.22,1.56-2.19,2.65-2.9,1.09-.71,2.26-1.07,3.52-1.07Z"/><path class="cls-1" d="m338.89,470.91l-.87-2.84h-.15c-.99,1.24-1.98,2.09-2.97,2.54-1,.45-2.28.67-3.84.67-2.01,0-3.57-.54-4.7-1.63-1.13-1.08-1.69-2.62-1.69-4.6,0-2.11.78-3.69,2.35-4.77,1.56-1.07,3.95-1.66,7.15-1.75l3.53-.11v-1.09c0-1.31-.3-2.28-.91-2.93s-1.55-.97-2.84-.97c-1.05,0-2.05.15-3.01.46-.96.31-1.88.67-2.77,1.09l-1.4-3.1c1.11-.58,2.32-1.02,3.64-1.32,1.32-.3,2.56-.45,3.73-.45,2.6,0,4.56.57,5.88,1.7,1.32,1.13,1.99,2.91,1.99,5.34v13.76h-3.1Zm-6.47-2.96c1.58,0,2.84-.44,3.8-1.32.95-.88,1.43-2.12,1.43-3.7v-1.77l-2.62.11c-2.04.07-3.53.42-4.46,1.03-.93.61-1.39,1.54-1.39,2.8,0,.91.27,1.62.81,2.12.54.5,1.35.75,2.44.75Z"/><path class="cls-1" d="m355.66,467.77c1.06,0,2.12-.17,3.18-.5v3.27c-.48.21-1.1.38-1.86.53-.76.14-1.54.21-2.36.21-4.11,0-6.17-2.17-6.17-6.5v-11.01h-2.79v-1.92l2.99-1.59,1.48-4.32h2.68v4.54h5.82v3.29h-5.82v10.94c0,1.05.26,1.82.78,2.32.52.5,1.21.75,2.06.75Z"/><path class="cls-1" d="m362.66,445.07c0-.78.21-1.37.64-1.79.42-.42,1.03-.63,1.82-.63s1.36.21,1.78.63c.42.42.64,1.02.64,1.79s-.21,1.32-.64,1.75-1.02.64-1.78.64-1.39-.21-1.82-.64c-.42-.42-.64-1.01-.64-1.75Zm4.6,25.84h-4.34v-20.43h4.34v20.43Z"/><path class="cls-1" d="m391.59,460.66c0,3.34-.86,5.94-2.57,7.81s-4.09,2.81-7.15,2.81c-1.91,0-3.6-.43-5.06-1.29-1.47-.86-2.59-2.1-3.38-3.71-.79-1.61-1.18-3.49-1.18-5.62,0-3.31.85-5.9,2.55-7.76,1.7-1.86,4.09-2.79,7.19-2.79s5.3.95,7.02,2.85,2.59,4.47,2.59,7.69Zm-14.87,0c0,4.72,1.74,7.08,5.23,7.08s5.17-2.36,5.17-7.08-1.74-7-5.21-7c-1.82,0-3.14.6-3.96,1.81-.82,1.21-1.23,2.94-1.23,5.19Z"/><path class="cls-1" d="m414.55,470.91h-4.36v-12.56c0-1.58-.32-2.75-.95-3.53s-1.64-1.16-3.02-1.16c-1.84,0-3.18.54-4.03,1.63s-1.27,2.9-1.27,5.45v10.18h-4.34v-20.43h3.4l.61,2.68h.22c.62-.97,1.49-1.72,2.62-2.25,1.13-.53,2.39-.79,3.77-.79,4.9,0,7.35,2.49,7.35,7.48v13.32Z"/><path class="cls-1" d="m448.77,452.07c0,2.82-.92,4.98-2.77,6.48-1.85,1.5-4.48,2.25-7.89,2.25h-2.81v10.1h-4.42v-27.01h7.78c3.37,0,5.9.69,7.58,2.07,1.68,1.38,2.52,3.41,2.52,6.1Zm-13.47,5.02h2.35c2.27,0,3.93-.39,4.99-1.18s1.59-2.02,1.59-3.69c0-1.55-.47-2.71-1.42-3.47-.95-.76-2.43-1.15-4.43-1.15h-3.07v9.5Z"/><path class="cls-1" d="m458.04,470.91h-4.34v-28.74h4.34v28.74Z"/><path class="cls-1" d="m477.03,470.91l-.87-2.84h-.15c-.99,1.24-1.98,2.09-2.97,2.54-1,.45-2.28.67-3.84.67-2.01,0-3.57-.54-4.7-1.63-1.13-1.08-1.69-2.62-1.69-4.6,0-2.11.78-3.69,2.35-4.77,1.56-1.07,3.95-1.66,7.15-1.75l3.53-.11v-1.09c0-1.31-.3-2.28-.91-2.93s-1.55-.97-2.84-.97c-1.05,0-2.05.15-3.01.46-.96.31-1.88.67-2.77,1.09l-1.4-3.1c1.11-.58,2.32-1.02,3.64-1.32,1.32-.3,2.56-.45,3.73-.45,2.6,0,4.56.57,5.88,1.7,1.32,1.13,1.99,2.91,1.99,5.34v13.76h-3.1Zm-6.47-2.96c1.58,0,2.84-.44,3.8-1.32.95-.88,1.43-2.12,1.43-3.7v-1.77l-2.62.11c-2.04.07-3.53.42-4.46,1.03-.93.61-1.39,1.54-1.39,2.8,0,.91.27,1.62.81,2.12.54.5,1.35.75,2.44.75Z"/><path class="cls-1" d="m493.8,467.77c1.06,0,2.12-.17,3.18-.5v3.27c-.48.21-1.1.38-1.86.53-.76.14-1.54.21-2.36.21-4.11,0-6.17-2.17-6.17-6.5v-11.01h-2.79v-1.92l2.99-1.59,1.48-4.32h2.68v4.54h5.82v3.29h-5.82v10.94c0,1.05.26,1.82.78,2.32.52.5,1.21.75,2.06.75Z"/><path class="cls-1" d="m511.32,453.77h-4.99v17.14h-4.36v-17.14h-3.36v-2.03l3.36-1.33v-1.33c0-2.41.57-4.2,1.7-5.37,1.13-1.16,2.86-1.75,5.19-1.75,1.53,0,3.03.25,4.51.76l-1.15,3.29c-1.07-.34-2.09-.52-3.07-.52s-1.7.3-2.15.91c-.45.61-.67,1.52-.67,2.74v1.33h4.99v3.29Z"/><path class="cls-1" d="m532.91,460.66c0,3.34-.86,5.94-2.57,7.81-1.71,1.87-4.09,2.81-7.15,2.81-1.91,0-3.6-.43-5.06-1.29-1.47-.86-2.59-2.1-3.38-3.71-.79-1.61-1.18-3.49-1.18-5.62,0-3.31.85-5.9,2.55-7.76,1.7-1.86,4.09-2.79,7.19-2.79s5.3.95,7.02,2.85,2.59,4.47,2.59,7.69Zm-14.87,0c0,4.72,1.74,7.08,5.23,7.08s5.17-2.36,5.17-7.08-1.74-7-5.21-7c-1.82,0-3.14.6-3.96,1.81-.82,1.21-1.23,2.94-1.23,5.19Z"/><path class="cls-1" d="m548.26,450.11c.87,0,1.59.06,2.16.18l-.42,4.05c-.62-.15-1.26-.22-1.92-.22-1.74,0-3.14.57-4.22,1.7-1.08,1.13-1.62,2.6-1.62,4.42v10.68h-4.34v-20.43h3.4l.57,3.6h.22c.68-1.22,1.56-2.19,2.65-2.9,1.09-.71,2.26-1.07,3.52-1.07Z"/><path class="cls-1" d="m571.43,470.91h-4.36v-12.6c0-1.56-.3-2.73-.89-3.5-.59-.77-1.51-1.15-2.77-1.15-1.67,0-2.9.55-3.69,1.64-.78,1.09-1.17,2.9-1.17,5.44v10.18h-4.34v-20.43h3.4l.61,2.68h.22c.57-.97,1.39-1.72,2.47-2.25,1.08-.53,2.26-.79,3.56-.79,3.14,0,5.22,1.07,6.24,3.21h.3c.6-1.01,1.45-1.8,2.55-2.36,1.1-.57,2.35-.85,3.77-.85,2.44,0,4.21.62,5.33,1.85,1.11,1.23,1.67,3.11,1.67,5.63v13.32h-4.34v-12.6c0-1.56-.3-2.73-.9-3.5s-1.52-1.15-2.78-1.15c-1.69,0-2.92.53-3.7,1.58-.78,1.05-1.17,2.67-1.17,4.85v10.83Z"/></svg>