<?xml version="1.0" encoding="UTF-8"?>
<svg id="Layer_1" data-name="Layer 1" xmlns="http://www.w3.org/2000/svg" width="198" height="38.17" viewBox="0 0 198 38.17">
  <defs>
    <style>
      .cls-1 {
        fill: #fff;
      }
    </style>
  </defs>
  <path class="cls-1" d="M19.08,0C8.54,0,0,8.54,0,19.09s8.54,19.09,19.08,19.09,19.08-8.54,19.08-19.09S29.62,0,19.08,0ZM3.28,19.09c0-.61.04-1.2.1-1.79,2.89-5.06,8.84-7.85,14.81-6.47.69.16,1.34.38,1.97.66,2.06.91,3.72,2.43,4.82,4.29.01.02.03.04.04.06-.01-.02-.03-.04-.04-.06-1.13-1.84-2.97-3.25-5.24-3.77-5.61-1.3-11.2,2.2-12.5,7.81-1.24,5.39,1.05,10.77,5.36,13.71-5.5-2.47-9.33-8-9.33-14.43ZM22.37,31.94c-5.53,0-10.02-4.49-10.02-10.02,0-4.43,3.59-8.02,8.02-8.02,1.8,0,3.43.74,4.59,1.94h0s.02.01.03.01c.01,0,.02,0,.03-.01,0,0,.01-.02.01-.03h0s0-.01,0-.02c0,0,0,0,0,0-1.87-3.17-4.99-5.59-8.87-6.49-3.43-.79-6.85-.52-9.93.59,2.87-4,7.55-6.61,12.85-6.61,8.73,0,15.8,7.08,15.8,15.81,0,1.22-.14,2.41-.4,3.55-1.42,5.36-6.3,9.31-12.11,9.31h0Z"/>
  <path class="cls-1" d="M107.81,22.19h18.4v-4.15h-13.93v-3.7h10.97v-4.15h-10.97v-3.17h13.93V2.92h-18.4v19.27Z"/>
  <path class="cls-1" d="M146.39,13.02c.66-.59,1.16-1.28,1.48-2.08.32-.8.49-1.64.49-2.5,0-1.06-.22-2.01-.66-2.84-.44-.82-1.09-1.48-1.96-1.96-.86-.48-1.93-.72-3.19-.72h-13.29v19.27h4.47v-7.85h5.35l4.51,7.85h5.07l-4.72-8.01c.97-.19,1.79-.57,2.45-1.16h0ZM143.87,8.64c0,.45-.12.82-.36,1.11-.24.29-.56.44-.96.44h-8.82v-3.17h8.82c.43,0,.76.12.98.35.22.23.34.56.34,1v.28Z"/>
  <path class="cls-1" d="M156.02,2.92h-4.47v19.27h4.47V2.92Z"/>
  <path class="cls-1" d="M165.73,7.65c.76-.54,1.68-.81,2.74-.81,1.27,0,2.33.39,3.19,1.17.86.78,1.43,1.76,1.71,2.95l.07.32h4.72l-.07-.46c-.23-1.5-.77-2.87-1.61-4.13-.84-1.26-1.95-2.26-3.32-3.02-1.37-.76-2.94-1.13-4.7-1.13-2.02,0-3.77.48-5.24,1.44-1.47.96-2.59,2.2-3.36,3.73-.76,1.53-1.15,3.14-1.15,4.84s.38,3.31,1.15,4.85c.76,1.54,1.88,2.78,3.36,3.74,1.47.96,3.22,1.44,5.24,1.44,1.77,0,3.34-.37,4.71-1.12,1.37-.75,2.47-1.75,3.31-3.01.84-1.26,1.38-2.64,1.61-4.16l.07-.44h-4.72l-.07.3c-.28,1.19-.85,2.17-1.72,2.95-.87.78-1.93,1.17-3.18,1.17-1.06,0-1.98-.27-2.74-.81-.76-.54-1.34-1.25-1.74-2.13-.39-.88-.59-1.81-.59-2.78s.2-1.9.59-2.77c.39-.87.97-1.58,1.74-2.12h0Z"/>
  <path class="cls-1" d="M195.59,11.53c-1.61-.81-3.76-1.21-6.45-1.21-.57,0-1.03,0-1.37-.02-.7-.06-1.19-.13-1.48-.21-.99-.22-1.48-.66-1.48-1.32,0-.79.44-1.35,1.32-1.69.68-.26,1.63-.39,2.85-.39,1.11,0,2.09.18,2.93.54.84.36,1.25.91,1.24,1.63v.39h4.49v-.39c0-1.39-.41-2.56-1.23-3.51-.82-.95-1.89-1.66-3.21-2.12-1.32-.46-2.73-.7-4.22-.7-2.55,0-4.63.49-6.24,1.47-1.61.98-2.42,2.57-2.42,4.76,0,1.53.39,2.71,1.16,3.53.77.83,1.77,1.39,3.01,1.68,1.23.29,2.69.44,4.35.44,1.31,0,2.33.09,3.05.28,1.08.25,1.62.73,1.62,1.46,0,.45-.13.82-.38,1.11-.26.29-.61.53-1.08.72-.8.31-1.83.46-3.08.46-.46,0-.97-.04-1.51-.12-.54-.08-1.03-.2-1.48-.37-1.03-.39-1.55-.96-1.55-1.71v-.39h-4.49v.39c0,1.42.44,2.61,1.32,3.55.88.95,2.01,1.65,3.38,2.1,1.37.45,2.82.67,4.33.67,2.64,0,4.8-.5,6.49-1.51,1.69-1,2.53-2.64,2.53-4.91s-.81-3.81-2.42-4.62h0Z"/>
  <path class="cls-1" d="M71.98,2.92l-7.61,19.27h4.74l2.38-5.65h6.78l2.57,5.65h4.79l-7.66-19.27h-6ZM72.88,12.42c1.23-3.01,1.89-4.77,1.97-5.28l2.04,5.28h-4Z"/>
  <path class="cls-1" d="M95.38,18l-5.99-15.08h-4.81l7.62,19.27h5.99l7.66-19.27h-4.74c-3.75,9.46-5.66,14.49-5.72,15.08Z"/>
  <path class="cls-1" d="M53.01,9.99l-5.45-7.06h-3.91v19.27h4.47v-11.81l4.89,6.75,4.89-6.75v11.81h4.47V2.92h-3.91l-5.45,7.06Z"/>
  <path class="cls-1" d="M43.61,35.32v-10.13h6.23c.8,0,1.43.26,1.88.78.45.52.68,1.2.68,2.05,0,.45-.1.87-.3,1.27-.2.39-.47.62-.82.72.28.05.53.19.77.43.23.23.42.53.55.89.13.36.2.75.2,1.17,0,.85-.23,1.53-.68,2.06-.45.52-1.08.78-1.87.78h-6.64ZM49.84,29.59c.46,0,.83-.13,1.12-.38s.43-.62.43-1.09v-.34c0-.46-.14-.85-.43-1.17-.28-.33-.65-.49-1.12-.49h-5.22v3.47h5.22ZM50.25,34.37c.32,0,.59-.08.83-.25.23-.18.41-.4.53-.67.13-.28.19-.56.19-.85v-.34c0-.46-.14-.86-.43-1.19-.28-.33-.65-.5-1.12-.5h-5.64v3.8h5.64ZM56.84,31.04l-3.86-5.85h1.11l3.06,4.41h.38l3.04-4.41h1.11l-3.83,5.85v4.28h-1v-4.28ZM70.87,33.29c.68,0,1.23-.08,1.67-.25.25-.1.44-.23.58-.39.14-.16.21-.36.21-.6,0-.39-.29-.66-.88-.79-.39-.1-.95-.15-1.66-.15-.9,0-1.69-.08-2.36-.24-.67-.16-1.21-.46-1.63-.9-.42-.45-.63-1.09-.63-1.92,0-1.19.44-2.05,1.31-2.57.88-.54,2.01-.8,3.39-.8.81,0,1.57.13,2.29.38.72.25,1.3.64,1.75,1.16.44.51.67,1.14.67,1.9v.21h-2.44v-.21c0-.39-.22-.69-.68-.88-.45-.2-.98-.3-1.58-.3-.66,0-1.18.07-1.54.21-.48.18-.72.49-.72.92,0,.36.27.6.8.72.16.04.43.08.8.11.18,0,.43.01.74.01,1.46,0,2.62.22,3.49.67.88.44,1.32,1.27,1.32,2.5s-.46,2.12-1.38,2.66c-.91.54-2.08.82-3.52.82-.82,0-1.6-.12-2.35-.36-.75-.24-1.36-.62-1.83-1.13-.48-.52-.72-1.16-.72-1.93v-.21h2.44v.21c0,.41.28.72.84.93.24.09.51.16.8.2.29.04.57.06.82.06ZM76.28,24.87h10.16v2.22h-3.86v8.22h-2.44v-8.22h-3.87v-2.22ZM87.7,35.32v-10.45h7.21c.69,0,1.26.13,1.73.39s.82.62,1.05,1.07c.24.44.36.95.36,1.53,0,.47-.09.92-.26,1.36-.18.44-.44.81-.8,1.13-.36.32-.8.53-1.33.63l2.56,4.34h-2.75l-2.45-4.26h-2.9v4.26h-2.42ZM90.13,28.82h4.78c.22,0,.39-.08.51-.24.13-.16.2-.36.2-.6v-.15c0-.23-.06-.41-.19-.54-.12-.13-.29-.19-.53-.19h-4.78v1.72ZM101.48,35.32h-2.57l4.13-10.45h3.25l4.16,10.45h-2.6l-1.39-3.06h-3.68l-1.29,3.06ZM105.7,30.02l-1.11-2.86c-.04.28-.4,1.23-1.07,2.86h2.17ZM109.81,24.87h10.16v2.22h-3.86v8.22h-2.44v-8.22h-3.87v-2.22ZM121.91,35.32h-2.57l4.13-10.45h3.25l4.16,10.45h-2.6l-1.39-3.06h-3.68l-1.29,3.06ZM126.13,30.02l-1.11-2.86c-.04.28-.4,1.23-1.07,2.86h2.17Z"/>
</svg>
