<?xml version="1.0" encoding="UTF-8"?><svg id="Layer_1" xmlns="http://www.w3.org/2000/svg" viewBox="0 0 1080 220"><defs><style>.cls-1{fill:#03212a;}.cls-2{fill:#04485c;}.cls-3{fill:#00837d;}.cls-4{fill:#453992;}</style></defs><path class="cls-4" d="m110,209.71c-26.63,0-51.67-10.37-70.5-29.2-18.83-18.83-29.2-43.87-29.2-70.5s10.37-51.67,29.2-70.5c18.83-18.83,43.87-29.2,70.5-29.2s51.67,10.37,70.5,29.2c18.83,18.83,29.2,43.87,29.2,70.5s-10.37,51.67-29.2,70.5c-18.83,18.83-43.87,29.2-70.5,29.2Zm6.77-127.19c-23.33,0-42.31,18.98-42.31,42.31,0,29.12,23.69,52.82,52.82,52.82s56.09-20.14,63.75-48.98c1.4-6.09,2.1-12.37,2.1-18.66,0-22.2-8.65-43.08-24.35-58.78-15.7-15.7-36.58-24.35-58.78-24.35-13.44,0-26.78,3.28-38.6,9.49-11.44,6.01-21.47,14.75-29.01,25.27l-.55.77.89-.32c10.03-3.63,20.51-5.47,31.14-5.47,6.95,0,13.94.8,20.78,2.38,9.9,2.29,19,6.48,27.06,12.45,7.66,5.68,14.03,12.71,18.93,20.9-6.38-6.34-14.84-9.83-23.88-9.83Z"/><path class="cls-3" d="m105.34,66.68c3.6.83,7.05,1.99,10.31,3.44,10.77,4.78,19.51,12.72,25.28,22.48.06.11.13.22.19.33.01.02.02.03.03.05,0,0,0,0,0,0,.05-.04.08-.1.08-.17,0-.01,0-.03,0-.04,0-.02-.01-.04-.02-.06l-.02-.03c-9.8-16.64-26.18-29.29-46.47-33.97-17.98-4.15-35.95-2.74-52.1,3.1-8.02,11.19-13.32,24.45-14.93,38.84,15.14-26.52,46.37-41.19,77.65-33.96Z"/><path class="cls-2" d="m76.05,185.58c-22.59-15.39-34.6-43.58-28.08-71.81,6.79-29.4,36.12-47.72,65.51-40.94,11.9,2.75,21.54,10.12,27.44,19.77,0,0,0,0,0,0-5.77-9.76-14.51-17.7-25.28-22.48-3.26-1.45-6.7-2.61-10.31-3.44-31.29-7.22-62.52,7.44-77.65,33.96-.35,3.07-.52,6.19-.52,9.36,0,33.65,20.07,62.61,48.88,75.58Z"/><path class="cls-1" d="m110,10C54.77,10,10,54.77,10,110s44.77,100,100,100,100-44.77,100-100S165.23,10,110,10ZM27.17,110c0-45.75,37.09-82.83,82.83-82.83s82.83,37.09,82.83,82.83c0,6.39-.72,12.61-2.09,18.59-7.45,28.08-33.04,48.77-63.46,48.77s-52.52-23.52-52.52-52.52c0-23.21,18.81-42.02,42.02-42.02,9.45,0,17.97,3.87,24.07,10.15,0,0,0,0,.01.01.04.04.09.06.15.06.05,0,.1-.02.14-.05-.01-.02-.02-.03-.03-.05-.07-.11-.13-.22-.2-.33-5.91-9.66-15.54-17.02-27.44-19.77-29.4-6.79-58.73,11.54-65.51,40.94-6.52,28.23,5.5,56.42,28.08,71.81-28.82-12.96-48.88-41.93-48.88-75.58Z"/><path class="cls-1" d="m397.49,25.2l-40.63,102.76h25.32l12.72-30.14h36.19l13.71,30.14h25.57l-40.88-102.76h-31.99Zm4.82,50.64c6.59-16.06,10.08-25.44,10.5-28.16l10.87,28.16h-21.37Z"/><path class="cls-1" d="m522.36,105.61l-31.99-80.41h-25.69l40.64,102.76h31.99l40.88-102.76h-25.32c-20.01,50.48-30.18,77.28-30.51,80.41Z"/><polygon class="cls-1" points="588.68 127.97 686.87 127.97 686.87 105.86 612.52 105.86 612.52 86.1 671.06 86.1 671.06 63.99 612.52 63.99 612.52 47.07 686.87 47.07 686.87 25.2 588.68 25.2 588.68 127.97"/><path class="cls-1" d="m794.57,79.05c3.54-3.13,6.18-6.83,7.9-11.12,1.73-4.28,2.59-8.73,2.59-13.34,0-5.68-1.17-10.72-3.52-15.13-2.35-4.4-5.83-7.88-10.44-10.44-4.61-2.55-10.29-3.83-17.04-3.83h-70.9v102.76h23.84v-41.87h28.53l24.08,41.87h27.05l-25.2-42.73c5.19-.99,9.55-3.04,13.09-6.18Zm-13.46-23.34c0,2.39-.64,4.37-1.91,5.93-1.28,1.57-2.99,2.35-5.13,2.35h-47.06v-16.92h47.06c2.3,0,4.05.62,5.25,1.85,1.19,1.24,1.79,3.01,1.79,5.31v1.48Z"/><rect class="cls-1" x="822.11" y="25.2" width="23.84" height="102.76"/><path class="cls-1" d="m897.76,50.4c4.08-2.88,8.95-4.32,14.64-4.32,6.75,0,12.43,2.08,17.04,6.24,4.61,4.16,7.66,9.41,9.14,15.75l.37,1.73h25.2l-.37-2.47c-1.24-7.99-4.1-15.33-8.58-22.05-4.49-6.71-10.4-12.08-17.72-16.12-7.33-4.03-15.69-6.05-25.07-6.05-10.79,0-20.11,2.55-27.97,7.66-7.86,5.11-13.83,11.73-17.91,19.89-4.08,8.15-6.11,16.76-6.11,25.81s2.04,17.68,6.11,25.88c4.08,8.19,10.04,14.84,17.91,19.95,7.86,5.11,17.19,7.66,27.97,7.66,9.47,0,17.85-2,25.13-5.99,7.29-3.99,13.17-9.34,17.66-16.06,4.49-6.71,7.35-14.1,8.58-22.17l.37-2.35h-25.2l-.37,1.61c-1.48,6.34-4.55,11.59-9.2,15.75-4.65,4.16-10.31,6.24-16.98,6.24-5.68,0-10.56-1.44-14.64-4.32-4.08-2.88-7.16-6.67-9.26-11.36-2.1-4.69-3.15-9.63-3.15-14.82s1.05-10.11,3.15-14.76c2.1-4.65,5.19-8.42,9.26-11.3Z"/><path class="cls-1" d="m1057.09,71.09c-8.61-4.32-20.07-6.48-34.4-6.48-3.05,0-5.48-.04-7.29-.12-3.71-.33-6.34-.7-7.91-1.11-5.27-1.15-7.9-3.5-7.9-7.04,0-4.2,2.35-7.2,7.04-9.02,3.62-1.4,8.69-2.1,15.19-2.1,5.93,0,11.14.97,15.62,2.9,4.49,1.94,6.69,4.84,6.61,8.71v2.1h23.96v-2.1c0-7.41-2.18-13.65-6.55-18.71-4.37-5.06-10.07-8.83-17.11-11.3-7.04-2.47-14.55-3.71-22.54-3.71-13.59,0-24.68,2.62-33.29,7.84-8.6,5.23-12.91,13.69-12.91,25.38,0,8.15,2.06,14.43,6.17,18.83,4.12,4.41,9.47,7.39,16.06,8.96,6.59,1.56,14.33,2.35,23.22,2.35,7,0,12.43.49,16.3,1.48,5.76,1.32,8.65,3.91,8.65,7.78,0,2.39-.68,4.37-2.04,5.93-1.36,1.57-3.27,2.84-5.74,3.83-4.28,1.65-9.76,2.47-16.43,2.47-2.47,0-5.15-.2-8.03-.62-2.88-.41-5.52-1.07-7.91-1.98-5.52-2.06-8.28-5.1-8.28-9.14v-2.1h-23.96v2.1c0,7.58,2.35,13.9,7.04,18.96,4.69,5.06,10.7,8.79,18.03,11.18,7.33,2.39,15.03,3.58,23.1,3.58,14.08,0,25.63-2.67,34.65-8.03,9.02-5.35,13.52-14.08,13.52-26.18s-4.3-20.32-12.91-24.64Z"/><polygon class="cls-1" points="296.27 62.88 267.19 25.2 246.31 25.2 246.31 127.97 270.15 127.97 270.15 64.97 296.27 101 322.39 64.97 322.39 127.97 346.23 127.97 346.23 25.2 325.36 25.2 296.27 62.88"/><path class="cls-1" d="m246.31,195.05v-39.03h6.38v39.03h-6.38Z"/><path class="cls-1" d="m272.29,195.59c-3.68,0-6.56-1.33-8.62-4-2.06-2.67-3.1-6.42-3.1-11.24s1.05-8.61,3.14-11.31c2.09-2.7,4.99-4.04,8.69-4.04s6.83,1.43,8.86,4.3h.32c-.3-2.12-.45-3.79-.45-5.02v-10.76h6.3v41.54h-4.91l-1.09-3.87h-.29c-2.01,2.94-4.96,4.4-8.84,4.4Zm1.68-5.07c2.58,0,4.46-.72,5.63-2.18,1.17-1.45,1.78-3.8,1.82-7.06v-.88c0-3.72-.61-6.36-1.82-7.93-1.21-1.57-3.11-2.35-5.69-2.35-2.21,0-3.91.89-5.1,2.68-1.19,1.79-1.79,4.34-1.79,7.65s.58,5.77,1.74,7.49c1.16,1.72,2.89,2.58,5.21,2.58Z"/><path class="cls-1" d="m309.29,195.59c-4.59,0-8.18-1.34-10.77-4.02-2.59-2.68-3.88-6.37-3.88-11.06s1.2-8.61,3.6-11.37c2.4-2.76,5.7-4.14,9.9-4.14,3.9,0,6.98,1.18,9.24,3.55,2.26,2.37,3.39,5.62,3.39,9.77v3.39h-19.67c.09,2.87.86,5.07,2.32,6.61,1.46,1.54,3.51,2.31,6.17,2.31,1.74,0,3.37-.16,4.87-.49,1.5-.33,3.12-.88,4.85-1.64v5.1c-1.53.73-3.08,1.25-4.64,1.55-1.57.3-3.35.45-5.37.45Zm-1.15-25.84c-1.99,0-3.59.63-4.79,1.9-1.2,1.26-1.92,3.11-2.15,5.53h13.4c-.04-2.44-.62-4.28-1.76-5.54-1.14-1.25-2.71-1.88-4.7-1.88Z"/><path class="cls-1" d="m353.87,195.05h-6.3v-18.15c0-2.28-.46-3.98-1.37-5.1s-2.37-1.68-4.36-1.68c-2.65,0-4.59.78-5.82,2.35-1.23,1.57-1.84,4.19-1.84,7.87v14.71h-6.27v-29.52h4.91l.88,3.87h.32c.89-1.41,2.15-2.49,3.79-3.26,1.64-.77,3.45-1.15,5.45-1.15,7.08,0,10.62,3.6,10.62,10.81v19.25Z"/><path class="cls-1" d="m373.59,190.52c1.53,0,3.06-.24,4.59-.72v4.73c-.69.3-1.59.56-2.68.76-1.09.2-2.23.31-3.4.31-5.94,0-8.92-3.13-8.92-9.4v-15.91h-4.03v-2.78l4.32-2.3,2.14-6.25h3.87v6.57h8.41v4.75h-8.41v15.8c0,1.51.38,2.63,1.13,3.35.76.72,1.75,1.08,2.98,1.08Z"/><path class="cls-1" d="m383.71,157.71c0-1.12.31-1.98.92-2.59.61-.6,1.49-.91,2.63-.91s1.96.3,2.58.91c.61.61.92,1.47.92,2.59s-.31,1.91-.92,2.52-1.47.92-2.58.92-2.02-.31-2.63-.92c-.61-.61-.92-1.45-.92-2.52Zm6.65,37.35h-6.27v-29.52h6.27v29.52Z"/><path class="cls-1" d="m410.33,190.52c1.53,0,3.06-.24,4.59-.72v4.73c-.69.3-1.59.56-2.68.76-1.09.2-2.23.31-3.4.31-5.94,0-8.92-3.13-8.92-9.4v-15.91h-4.03v-2.78l4.32-2.3,2.14-6.25h3.87v6.57h8.41v4.75h-8.41v15.8c0,1.51.38,2.63,1.13,3.35.76.72,1.75,1.08,2.98,1.08Z"/><path class="cls-1" d="m416.33,165.53h6.83l6.01,16.74c.91,2.39,1.51,4.63,1.82,6.73h.21c.16-.98.45-2.17.88-3.56.43-1.4,2.69-8.03,6.78-19.9h6.78l-12.63,33.45c-2.3,6.14-6.12,9.21-11.48,9.21-1.39,0-2.74-.15-4.06-.45v-4.96c.94.21,2.02.32,3.23.32,3.03,0,5.15-1.75,6.38-5.26l1.09-2.78-11.85-29.52Z"/><path class="cls-1" d="m499.65,175.49c0,6.35-1.59,11.29-4.76,14.82-3.18,3.52-7.68,5.29-13.49,5.29s-10.42-1.75-13.57-5.25c-3.16-3.5-4.74-8.47-4.74-14.91s1.59-11.39,4.77-14.84c3.18-3.45,7.71-5.18,13.6-5.18s10.29,1.75,13.45,5.26c3.17,3.51,4.75,8.45,4.75,14.82Zm-29.79,0c0,4.81.97,8.45,2.91,10.93,1.94,2.48,4.81,3.72,8.62,3.72s6.65-1.23,8.58-3.68c1.93-2.46,2.9-6.11,2.9-10.97s-.96-8.42-2.87-10.89c-1.91-2.47-4.76-3.71-8.56-3.71s-6.71,1.24-8.66,3.71c-1.95,2.47-2.92,6.1-2.92,10.89Z"/><path class="cls-1" d="m522.34,165c1.26,0,2.3.09,3.12.27l-.61,5.85c-.89-.21-1.82-.32-2.78-.32-2.51,0-4.54.82-6.1,2.46-1.56,1.64-2.34,3.76-2.34,6.38v15.43h-6.27v-29.52h4.91l.83,5.21h.32c.98-1.76,2.26-3.16,3.83-4.19,1.57-1.03,3.27-1.55,5.09-1.55Z"/><path class="cls-1" d="m542.84,195.59c-4.47,0-7.86-1.3-10.18-3.91-2.32-2.61-3.48-6.35-3.48-11.23s1.21-8.78,3.64-11.45c2.43-2.67,5.94-4,10.53-4,3.11,0,5.92.58,8.41,1.74l-1.9,5.05c-2.65-1.03-4.84-1.55-6.57-1.55-5.11,0-7.66,3.39-7.66,10.17,0,3.31.64,5.8,1.91,7.46,1.27,1.66,3.14,2.5,5.59,2.5,2.79,0,5.44-.69,7.93-2.08v5.47c-1.12.66-2.32,1.13-3.59,1.41-1.27.28-2.82.43-4.63.43Z"/><path class="cls-1" d="m583.98,195.05h-6.3v-18.15c0-2.28-.46-3.98-1.37-5.1s-2.37-1.68-4.36-1.68c-2.63,0-4.57.79-5.81,2.36-1.24,1.58-1.86,4.21-1.86,7.91v14.66h-6.27v-41.54h6.27v10.54c0,1.69-.11,3.5-.32,5.42h.4c.85-1.42,2.04-2.53,3.56-3.31,1.52-.78,3.3-1.17,5.33-1.17,7.15,0,10.73,3.6,10.73,10.81v19.25Z"/><path class="cls-1" d="m605.6,195.59c-4.59,0-8.18-1.34-10.77-4.02-2.59-2.68-3.88-6.37-3.88-11.06s1.2-8.61,3.6-11.37c2.4-2.76,5.7-4.14,9.9-4.14,3.9,0,6.98,1.18,9.24,3.55,2.26,2.37,3.39,5.62,3.39,9.77v3.39h-19.67c.09,2.87.86,5.07,2.32,6.61,1.46,1.54,3.51,2.31,6.17,2.31,1.74,0,3.37-.16,4.87-.49,1.5-.33,3.12-.88,4.85-1.64v5.1c-1.53.73-3.08,1.25-4.64,1.55-1.57.3-3.35.45-5.37.45Zm-1.15-25.84c-1.99,0-3.59.63-4.79,1.9-1.2,1.26-1.92,3.11-2.15,5.53h13.4c-.04-2.44-.62-4.28-1.76-5.54s-2.71-1.88-4.7-1.88Z"/><path class="cls-1" d="m644.04,186.65c0,2.88-1.05,5.09-3.15,6.63-2.1,1.54-5.11,2.31-9.02,2.31s-7.09-.6-9.48-1.79v-5.42c3.47,1.6,6.7,2.4,9.69,2.4,3.86,0,5.79-1.17,5.79-3.5,0-.75-.21-1.37-.64-1.87s-1.13-1.01-2.11-1.55c-.98-.53-2.34-1.14-4.08-1.82-3.4-1.32-5.7-2.63-6.9-3.95-1.2-1.32-1.8-3.03-1.8-5.13,0-2.53,1.02-4.49,3.06-5.89,2.04-1.4,4.81-2.1,8.32-2.1s6.75.7,9.85,2.11l-2.03,4.73c-3.19-1.32-5.86-1.98-8.04-1.98-3.31,0-4.97.94-4.97,2.83,0,.93.43,1.71,1.29,2.35.86.64,2.75,1.52,5.65,2.64,2.44.94,4.21,1.81,5.31,2.59,1.1.78,1.92,1.69,2.46,2.71.53,1.02.8,2.25.8,3.67Z"/><path class="cls-1" d="m661.82,190.52c1.53,0,3.06-.24,4.59-.72v4.73c-.69.3-1.59.56-2.68.76-1.09.2-2.23.31-3.4.31-5.94,0-8.92-3.13-8.92-9.4v-15.91h-4.03v-2.78l4.32-2.3,2.14-6.25h3.87v6.57h8.41v4.75h-8.41v15.8c0,1.51.38,2.63,1.13,3.35.76.72,1.75,1.08,2.98,1.08Z"/><path class="cls-1" d="m687.28,165c1.26,0,2.3.09,3.12.27l-.61,5.85c-.89-.21-1.82-.32-2.78-.32-2.51,0-4.54.82-6.1,2.46-1.56,1.64-2.34,3.76-2.34,6.38v15.43h-6.27v-29.52h4.91l.83,5.21h.32c.98-1.76,2.26-3.16,3.83-4.19,1.57-1.03,3.27-1.55,5.09-1.55Z"/><path class="cls-1" d="m714.35,195.05l-1.25-4.11h-.21c-1.42,1.8-2.86,3.02-4.3,3.67-1.44.65-3.29.97-5.55.97-2.9,0-5.17-.78-6.79-2.35-1.63-1.57-2.44-3.78-2.44-6.65,0-3.04,1.13-5.34,3.39-6.89,2.26-1.55,5.7-2.39,10.33-2.54l5.1-.16v-1.57c0-1.89-.44-3.3-1.32-4.23s-2.25-1.4-4.1-1.4c-1.51,0-2.96.22-4.35.67-1.39.44-2.72.97-4,1.58l-2.03-4.48c1.6-.84,3.35-1.47,5.26-1.91,1.9-.44,3.7-.65,5.39-.65,3.75,0,6.59.82,8.5,2.46,1.91,1.64,2.87,4.21,2.87,7.71v19.89h-4.48Zm-9.34-4.27c2.28,0,4.11-.64,5.49-1.91,1.38-1.27,2.07-3.06,2.07-5.35v-2.56l-3.79.16c-2.95.11-5.1.6-6.45,1.48-1.34.88-2.02,2.23-2.02,4.04,0,1.32.39,2.34,1.17,3.06.78.72,1.96,1.08,3.52,1.08Z"/><path class="cls-1" d="m738.59,190.52c1.53,0,3.06-.24,4.59-.72v4.73c-.69.3-1.59.56-2.68.76-1.09.2-2.23.31-3.4.31-5.94,0-8.92-3.13-8.92-9.4v-15.91h-4.03v-2.78l4.32-2.3,2.14-6.25h3.87v6.57h8.41v4.75h-8.41v15.8c0,1.51.38,2.63,1.13,3.35.76.72,1.75,1.08,2.98,1.08Z"/><path class="cls-1" d="m748.71,157.71c0-1.12.31-1.98.92-2.59.61-.6,1.49-.91,2.63-.91s1.96.3,2.58.91c.61.61.92,1.47.92,2.59s-.31,1.91-.92,2.52-1.47.92-2.58.92-2.02-.31-2.63-.92c-.61-.61-.92-1.45-.92-2.52Zm6.65,37.35h-6.27v-29.52h6.27v29.52Z"/><path class="cls-1" d="m790.51,180.24c0,4.82-1.24,8.59-3.71,11.29s-5.92,4.06-10.33,4.06c-2.76,0-5.2-.62-7.31-1.87-2.12-1.25-3.75-3.03-4.89-5.37-1.14-2.33-1.71-5.04-1.71-8.12,0-4.79,1.23-8.52,3.68-11.21,2.46-2.69,5.92-4.03,10.38-4.03s7.65,1.37,10.14,4.12c2.49,2.75,3.74,6.46,3.74,11.12Zm-21.49,0c0,6.82,2.52,10.22,7.55,10.22s7.47-3.41,7.47-10.22-2.51-10.12-7.53-10.12c-2.63,0-4.54.87-5.73,2.62-1.18,1.74-1.78,4.24-1.78,7.5Z"/><path class="cls-1" d="m823.69,195.05h-6.3v-18.15c0-2.28-.46-3.98-1.37-5.1s-2.37-1.68-4.36-1.68c-2.65,0-4.59.78-5.82,2.35-1.23,1.57-1.84,4.19-1.84,7.87v14.71h-6.27v-29.52h4.91l.88,3.87h.32c.89-1.41,2.15-2.49,3.79-3.26,1.64-.77,3.45-1.15,5.45-1.15,7.08,0,10.62,3.6,10.62,10.81v19.25Z"/><path class="cls-1" d="m873.13,167.83c0,4.08-1.33,7.2-4,9.37-2.67,2.17-6.47,3.26-11.4,3.26h-4.06v14.6h-6.38v-39.03h11.24c4.88,0,8.53,1,10.96,2.99,2.43,1.99,3.64,4.93,3.64,8.81Zm-19.46,7.26h3.39c3.27,0,5.68-.57,7.21-1.71,1.53-1.14,2.3-2.92,2.3-5.34,0-2.24-.69-3.91-2.06-5.02-1.37-1.1-3.51-1.65-6.41-1.65h-4.43v13.72Z"/><path class="cls-1" d="m886.53,195.05h-6.27v-41.54h6.27v41.54Z"/><path class="cls-1" d="m913.98,195.05l-1.25-4.11h-.21c-1.42,1.8-2.86,3.02-4.3,3.67-1.44.65-3.29.97-5.55.97-2.9,0-5.17-.78-6.79-2.35-1.63-1.57-2.44-3.78-2.44-6.65,0-3.04,1.13-5.34,3.39-6.89,2.26-1.55,5.7-2.39,10.33-2.54l5.1-.16v-1.57c0-1.89-.44-3.3-1.32-4.23s-2.25-1.4-4.1-1.4c-1.51,0-2.96.22-4.35.67-1.39.44-2.72.97-4,1.58l-2.03-4.48c1.6-.84,3.35-1.47,5.26-1.91,1.9-.44,3.7-.65,5.39-.65,3.75,0,6.59.82,8.5,2.46,1.91,1.64,2.87,4.21,2.87,7.71v19.89h-4.48Zm-9.34-4.27c2.28,0,4.11-.64,5.49-1.91,1.38-1.27,2.07-3.06,2.07-5.35v-2.56l-3.79.16c-2.95.11-5.1.6-6.45,1.48-1.34.88-2.02,2.23-2.02,4.04,0,1.32.39,2.34,1.17,3.06.78.72,1.96,1.08,3.52,1.08Z"/><path class="cls-1" d="m938.22,190.52c1.53,0,3.06-.24,4.59-.72v4.73c-.69.3-1.59.56-2.68.76-1.09.2-2.23.31-3.4.31-5.94,0-8.92-3.13-8.92-9.4v-15.91h-4.03v-2.78l4.32-2.3,2.14-6.25h3.87v6.57h8.41v4.75h-8.41v15.8c0,1.51.38,2.63,1.13,3.35.76.72,1.75,1.08,2.98,1.08Z"/><path class="cls-1" d="m963.52,170.28h-7.21v24.77h-6.3v-24.77h-4.86v-2.94l4.86-1.92v-1.92c0-3.49.82-6.07,2.46-7.75,1.64-1.68,4.14-2.52,7.5-2.52,2.21,0,4.38.37,6.51,1.09l-1.65,4.75c-1.55-.5-3.03-.75-4.43-.75s-2.46.44-3.11,1.32c-.65.88-.97,2.2-.97,3.96v1.92h7.21v4.75Z"/><path class="cls-1" d="m994.73,180.24c0,4.82-1.24,8.59-3.71,11.29-2.47,2.71-5.92,4.06-10.33,4.06-2.76,0-5.2-.62-7.31-1.87-2.12-1.25-3.75-3.03-4.89-5.37-1.14-2.33-1.71-5.04-1.71-8.12,0-4.79,1.23-8.52,3.68-11.21,2.46-2.69,5.92-4.03,10.38-4.03s7.65,1.37,10.14,4.12c2.49,2.75,3.74,6.46,3.74,11.12Zm-21.49,0c0,6.82,2.52,10.22,7.55,10.22s7.47-3.41,7.47-10.22-2.51-10.12-7.53-10.12c-2.63,0-4.54.87-5.73,2.62-1.18,1.74-1.78,4.24-1.78,7.5Z"/><path class="cls-1" d="m1016.91,165c1.26,0,2.3.09,3.12.27l-.61,5.85c-.89-.21-1.82-.32-2.78-.32-2.51,0-4.54.82-6.1,2.46-1.56,1.64-2.34,3.76-2.34,6.38v15.43h-6.27v-29.52h4.91l.83,5.21h.32c.98-1.76,2.26-3.16,3.83-4.19,1.57-1.03,3.27-1.55,5.09-1.55Z"/><path class="cls-1" d="m1050.39,195.05h-6.3v-18.21c0-2.26-.43-3.95-1.28-5.06-.85-1.11-2.19-1.67-4-1.67-2.42,0-4.2.79-5.33,2.36-1.13,1.58-1.69,4.2-1.69,7.86v14.71h-6.27v-29.52h4.91l.88,3.87h.32c.82-1.41,2.01-2.49,3.56-3.26,1.56-.77,3.27-1.15,5.14-1.15,4.54,0,7.55,1.55,9.02,4.64h.43c.87-1.46,2.1-2.6,3.68-3.42,1.58-.82,3.4-1.23,5.45-1.23,3.52,0,6.09.89,7.7,2.67,1.61,1.78,2.42,4.49,2.42,8.14v19.25h-6.27v-18.21c0-2.26-.43-3.95-1.29-5.06-.86-1.11-2.2-1.67-4.02-1.67-2.44,0-4.22.76-5.35,2.28-1.13,1.52-1.69,3.86-1.69,7.01v15.64Z"/></svg>