<svg xmlns="http://www.w3.org/2000/svg" viewBox="0 0 900 540" font-family="'SF Mono', 'Fira Code', 'Consolas', monospace" font-size="12">
  <defs>
    <marker id="arrowhead" markerWidth="10" markerHeight="7" refX="10" refY="3.5" orient="auto">
      <polygon points="0 0, 10 3.5, 0 7" fill="#6f5eea"/>
    </marker>
    <marker id="arrowhead-teal" markerWidth="10" markerHeight="7" refX="10" refY="3.5" orient="auto">
      <polygon points="0 0, 10 3.5, 0 7" fill="#00CFC7"/>
    </marker>
    <marker id="arrowhead-gold" markerWidth="10" markerHeight="7" refX="10" refY="3.5" orient="auto">
      <polygon points="0 0, 10 3.5, 0 7" fill="#FEE03B"/>
    </marker>
  </defs>

  <!-- Background -->
  <rect width="900" height="540" fill="#0D172E" rx="8"/>

  <!-- Title -->
  <text x="450" y="30" text-anchor="middle" fill="#FEE03B" font-size="14" font-weight="bold">AWS Bedrock AgentCore + Maverics AI Identity Gateway</text>
  <text x="450" y="50" text-anchor="middle" fill="#8899aa" font-size="10">Same gateway, different agent. New pieces in gold.</text>

  <!-- AWS lane background -->
  <rect x="20" y="180" width="160" height="100" rx="6" fill="#FEE03B" fill-opacity="0.06" stroke="#FEE03B" stroke-width="1" stroke-dasharray="4,3"/>
  <text x="100" y="175" text-anchor="middle" fill="#FEE03B" font-size="9" font-weight="bold">AWS (us-east-1)</text>

  <!-- AgentCore Agent box -->
  <rect x="30" y="200" width="140" height="60" rx="6" fill="none" stroke="#FEE03B" stroke-width="2"/>
  <text x="100" y="225" text-anchor="middle" fill="#FEE03B" font-size="11" font-weight="bold">AgentCore Agent</text>
  <text x="100" y="242" text-anchor="middle" fill="#8899aa" font-size="9">MCP Client</text>

  <!-- Arrow: AgentCore -> Cloudflare Tunnel -->
  <line x1="170" y1="230" x2="220" y2="230" stroke="#FEE03B" stroke-width="2" marker-end="url(#arrowhead-gold)"/>
  <text x="195" y="222" text-anchor="middle" fill="#8899aa" font-size="8">HTTPS</text>

  <!-- Cloudflare Tunnel box (new) -->
  <rect x="225" y="200" width="120" height="60" rx="6" fill="none" stroke="#FEE03B" stroke-width="2"/>
  <text x="285" y="220" text-anchor="middle" fill="#FEE03B" font-size="10" font-weight="bold">Cloudflare</text>
  <text x="285" y="234" text-anchor="middle" fill="#FEE03B" font-size="10" font-weight="bold">Tunnel</text>
  <text x="285" y="250" text-anchor="middle" fill="#8899aa" font-size="9">Public hostnames</text>

  <!-- Arrow: Tunnel -> Envoy -->
  <line x1="345" y1="230" x2="395" y2="230" stroke="#6f5eea" stroke-width="2" marker-end="url(#arrowhead)"/>
  <text x="370" y="222" text-anchor="middle" fill="#8899aa" font-size="8">mTLS</text>

  <!-- Envoy box -->
  <rect x="400" y="200" width="80" height="60" rx="6" fill="none" stroke="#AD83FF" stroke-width="1"/>
  <text x="440" y="222" text-anchor="middle" fill="#AD83FF" font-size="10" font-weight="bold">Envoy</text>
  <text x="440" y="238" text-anchor="middle" fill="#8899aa" font-size="8">TLS edge</text>

  <!-- Arrow: Envoy -> Gateway -->
  <line x1="480" y1="230" x2="520" y2="230" stroke="#00CFC7" stroke-width="2" marker-end="url(#arrowhead-teal)"/>

  <!-- Gateway box (large) -->
  <rect x="525" y="130" width="200" height="200" rx="6" fill="none" stroke="#00CFC7" stroke-width="2"/>
  <text x="625" y="155" text-anchor="middle" fill="#00CFC7" font-size="12" font-weight="bold">Maverics Gateway</text>
  <text x="625" y="172" text-anchor="middle" fill="#8899aa" font-size="9">AI Identity Gateway</text>

  <!-- mcpProvider sub-box -->
  <rect x="540" y="185" width="170" height="35" rx="4" fill="none" stroke="#6f5eea" stroke-width="1" stroke-dasharray="4,2"/>
  <text x="625" y="200" text-anchor="middle" fill="#6f5eea" font-size="9">mcpProvider (OAuth + OPA)</text>
  <text x="625" y="213" text-anchor="middle" fill="#8899aa" font-size="8">Token validation, policy eval</text>

  <!-- Proxy sub-box -->
  <rect x="540" y="228" width="170" height="30" rx="4" fill="none" stroke="#00CFC7" stroke-width="1"/>
  <text x="625" y="248" text-anchor="middle" fill="#00CFC7" font-size="9">mcpProxy: enterprise-ledger</text>

  <!-- Bridge sub-box -->
  <rect x="540" y="266" width="170" height="30" rx="4" fill="none" stroke="#00CFC7" stroke-width="1"/>
  <text x="625" y="286" text-anchor="middle" fill="#00CFC7" font-size="9">mcpBridge: employee-directory</text>

  <!-- Token Exchange label -->
  <text x="625" y="315" text-anchor="middle" fill="#FEE03B" font-size="8">RFC 8693 Token Exchange ↕</text>

  <!-- Arrow: Gateway -> Enterprise Ledger -->
  <line x1="725" y1="243" x2="780" y2="190" stroke="#00CFC7" stroke-width="2" marker-end="url(#arrowhead-teal)"/>

  <!-- Arrow: Gateway -> Employee Directory -->
  <line x1="725" y1="281" x2="780" y2="310" stroke="#00CFC7" stroke-width="2" marker-end="url(#arrowhead-teal)"/>

  <!-- Enterprise Ledger box -->
  <rect x="785" y="155" width="105" height="70" rx="6" fill="none" stroke="#AD83FF" stroke-width="1"/>
  <text x="837" y="178" text-anchor="middle" fill="#AD83FF" font-size="10" font-weight="bold">Enterprise</text>
  <text x="837" y="192" text-anchor="middle" fill="#AD83FF" font-size="10" font-weight="bold">Ledger</text>
  <text x="837" y="208" text-anchor="middle" fill="#8899aa" font-size="8">Go MCP</text>

  <!-- Employee Directory box -->
  <rect x="785" y="280" width="105" height="70" rx="6" fill="none" stroke="#AD83FF" stroke-width="1"/>
  <text x="837" y="303" text-anchor="middle" fill="#AD83FF" font-size="10" font-weight="bold">Employee</text>
  <text x="837" y="317" text-anchor="middle" fill="#AD83FF" font-size="10" font-weight="bold">Directory</text>
  <text x="837" y="333" text-anchor="middle" fill="#8899aa" font-size="8">REST + OpenAPI</text>

  <!-- OIDC Provider box -->
  <rect x="455" y="395" width="220" height="70" rx="6" fill="none" stroke="#6f5eea" stroke-width="2"/>
  <text x="565" y="418" text-anchor="middle" fill="#6f5eea" font-size="11" font-weight="bold">Maverics OIDC Provider</text>
  <text x="565" y="434" text-anchor="middle" fill="#8899aa" font-size="9">Authorization Server</text>
  <text x="565" y="448" text-anchor="middle" fill="#8899aa" font-size="8">JWKS, Token Exchange, federation</text>

  <!-- Arrow: Gateway <-> OIDC Provider -->
  <line x1="625" y1="335" x2="595" y2="392" stroke="#6f5eea" stroke-width="2" marker-end="url(#arrowhead)"/>
  <text x="635" y="370" text-anchor="start" fill="#8899aa" font-size="8">validate + exchange</text>

  <!-- Keycloak box -->
  <rect x="220" y="395" width="140" height="70" rx="6" fill="none" stroke="#AD83FF" stroke-width="1"/>
  <text x="290" y="418" text-anchor="middle" fill="#AD83FF" font-size="11" font-weight="bold">Keycloak</text>
  <text x="290" y="434" text-anchor="middle" fill="#8899aa" font-size="9">Identity Provider</text>
  <text x="290" y="448" text-anchor="middle" fill="#8899aa" font-size="8">Test users, OIDC</text>

  <!-- Arrow: OIDC Provider -> Keycloak -->
  <line x1="455" y1="430" x2="365" y2="430" stroke="#AD83FF" stroke-width="1" marker-end="url(#arrowhead)"/>
  <text x="410" y="423" text-anchor="middle" fill="#8899aa" font-size="8">OIDC</text>

  <!-- New OIDC client annotation (gold, what changed) -->
  <rect x="50" y="395" width="140" height="70" rx="6" fill="#FEE03B" fill-opacity="0.06" stroke="#FEE03B" stroke-width="1" stroke-dasharray="4,3"/>
  <text x="120" y="418" text-anchor="middle" fill="#FEE03B" font-size="10" font-weight="bold">New OIDC client</text>
  <text x="120" y="434" text-anchor="middle" fill="#8899aa" font-size="9">bedrock-agentcore</text>
  <text x="120" y="448" text-anchor="middle" fill="#8899aa" font-size="8">3LO + 2LO grants</text>

  <!-- Connector dashed line from new client to OIDC Provider -->
  <line x1="190" y1="430" x2="455" y2="430" stroke="#FEE03B" stroke-width="1" stroke-dasharray="4,3"/>

  <!-- Legend -->
  <text x="40" y="510" fill="#FEE03B" font-size="9" font-weight="bold">■ New for Bedrock</text>
  <rect x="38" y="502" width="8" height="8" fill="#FEE03B"/>
  <text x="180" y="510" fill="#8899aa" font-size="9">■ Identity layer</text>
  <rect x="178" y="502" width="8" height="8" fill="#6f5eea"/>
  <text x="290" y="510" fill="#8899aa" font-size="9">■ Gateway</text>
  <rect x="288" y="502" width="8" height="8" fill="#00CFC7"/>
  <text x="380" y="510" fill="#8899aa" font-size="9">■ Backends and clients</text>
  <rect x="378" y="502" width="8" height="8" fill="#AD83FF"/>
</svg>
